<svg width="312" height="139" viewBox="0 0 312 139" fill="none" xmlns="http://www.w3.org/2000/svg">
<path d="M0.5 8C0.5 3.85787 3.85786 0.5 8 0.5H304C308.142 0.5 311.5 3.85786 311.5 8V60.5H0.5V8Z" stroke="#DEDEDE"/>
<rect x="16" y="14.5" width="32" height="32" rx="6" fill="#F2F2F2"/>
<path d="M26 36.5V37C26 37.4167 25.8542 37.7708 25.5625 38.0625C25.2708 38.3542 24.9167 38.5 24.5 38.5C24.0833 38.5 23.7292 38.3542 23.4375 38.0625C23.1458 37.7708 23 37.4167 23 37V29.85C23 29.7333 23.0083 29.6167 23.025 29.5C23.0417 29.3833 23.0667 29.275 23.1 29.175L24.975 23.85C25.1083 23.45 25.35 23.125 25.7 22.875C26.05 22.625 26.4417 22.5 26.875 22.5H37.125C37.5583 22.5 37.95 22.625 38.3 22.875C38.65 23.125 38.8917 23.45 39.025 23.85L40.9 29.175C40.9333 29.275 40.9583 29.3833 40.975 29.5C40.9917 29.6167 41 29.7333 41 29.85V37C41 37.4167 40.8542 37.7708 40.5625 38.0625C40.2708 38.3542 39.9167 38.5 39.5 38.5C39.0833 38.5 38.7292 38.3542 38.4375 38.0625C38.1458 37.7708 38 37.4167 38 37V36.5H26ZM25.8 27.5H38.2L37.15 24.5H26.85L25.8 27.5ZM27.5 33.5C27.9167 33.5 28.2708 33.3542 28.5625 33.0625C28.8542 32.7708 29 32.4167 29 32C29 31.5833 28.8542 31.2292 28.5625 30.9375C28.2708 30.6458 27.9167 30.5 27.5 30.5C27.0833 30.5 26.7292 30.6458 26.4375 30.9375C26.1458 31.2292 26 31.5833 26 32C26 32.4167 26.1458 32.7708 26.4375 33.0625C26.7292 33.3542 27.0833 33.5 27.5 33.5ZM36.5 33.5C36.9167 33.5 37.2708 33.3542 37.5625 33.0625C37.8542 32.7708 38 32.4167 38 32C38 31.5833 37.8542 31.2292 37.5625 30.9375C37.2708 30.6458 36.9167 30.5 36.5 30.5C36.0833 30.5 35.7292 30.6458 35.4375 30.9375C35.1458 31.2292 35 31.5833 35 32C35 32.4167 35.1458 32.7708 35.4375 33.0625C35.7292 33.3542 36.0833 33.5 36.5 33.5ZM25 34.5H39V29.5H25V34.5Z" fill="#1C1B1F"/>
<path d="M64.6738 22V16.6973H65.4844V17.5273H65.5527C65.7773 16.9609 66.2852 16.6289 66.9785 16.6289C67.6719 16.6289 68.1406 16.9609 68.3945 17.5273H68.4531C68.7266 16.9805 69.2832 16.6289 70.0449 16.6289C70.9922 16.6289 71.666 17.2051 71.666 18.4551V22H70.8262V18.4648C70.8262 17.6836 70.3281 17.3809 69.752 17.3809C69.0098 17.3809 68.5898 17.8789 68.5898 18.5527V22H67.7402V18.377C67.7402 17.7812 67.3105 17.3809 66.7051 17.3809C66.0703 17.3809 65.5137 17.918 65.5137 18.6895V22H64.6738ZM75.1816 22.1074C73.7363 22.1074 72.7598 21.0234 72.7598 19.373C72.7598 17.7227 73.7363 16.6289 75.1816 16.6289C76.6172 16.6289 77.584 17.7227 77.584 19.373C77.584 21.0234 76.6172 22.1074 75.1816 22.1074ZM75.1816 21.3652C76.2461 21.3652 76.7441 20.4277 76.7441 19.373C76.7441 18.3184 76.2461 17.3711 75.1816 17.3711C74.0977 17.3711 73.5996 18.3184 73.5996 19.373C73.5996 20.4277 74.0977 21.3652 75.1816 21.3652ZM82.8574 16.6973L80.8945 22H80.0254L78.0723 16.6973H78.9902L80.4355 20.9062H80.4941L81.9395 16.6973H82.8574ZM85.8164 22.1074C84.2832 22.1074 83.3359 21.0234 83.3359 19.3926C83.3359 17.7617 84.293 16.6289 85.7383 16.6289C86.8516 16.6289 88.0234 17.3125 88.0234 19.2754V19.627H84.1758C84.2148 20.75 84.8691 21.3652 85.8164 21.3652C86.4512 21.3652 86.8516 21.0918 87.0469 20.7598H87.9453C87.6914 21.5605 86.9102 22.1074 85.8164 22.1074ZM84.1855 18.9141H87.1738C87.1738 18.0254 86.6074 17.3711 85.7383 17.3711C84.8203 17.3711 84.2344 18.0938 84.1855 18.9141ZM89.7129 22.0586C89.3711 22.0586 89.0781 21.7754 89.0879 21.4238C89.0781 21.082 89.3711 20.7988 89.7129 20.7988C90.0547 20.7988 90.3379 21.082 90.3379 21.4238C90.3379 21.7754 90.0547 22.0586 89.7129 22.0586ZM91.6562 22V16.6973H92.4668V17.5273H92.5352C92.7598 16.9609 93.2676 16.6289 93.9609 16.6289C94.6543 16.6289 95.123 16.9609 95.377 17.5273H95.4355C95.709 16.9805 96.2656 16.6289 97.0273 16.6289C97.9746 16.6289 98.6484 17.2051 98.6484 18.4551V22H97.8086V18.4648C97.8086 17.6836 97.3105 17.3809 96.7344 17.3809C95.9922 17.3809 95.5723 17.8789 95.5723 18.5527V22H94.7227V18.377C94.7227 17.7812 94.293 17.3809 93.6875 17.3809C93.0527 17.3809 92.4961 17.918 92.4961 18.6895V22H91.6562ZM99.9961 22V16.6973H100.836V22H99.9961ZM100.416 15.8184C100.094 15.8184 99.8301 15.5742 99.8301 15.2617C99.8301 14.9492 100.094 14.7051 100.416 14.7051C100.738 14.7051 101.012 14.9492 101.012 15.2617C101.012 15.5742 100.738 15.8184 100.416 15.8184ZM104.342 22.1074C102.838 22.1074 101.92 20.9648 101.92 19.373C101.92 17.7617 102.877 16.6289 104.322 16.6289C105.455 16.6289 106.295 17.293 106.432 18.2988H105.592C105.475 17.8105 105.045 17.3711 104.342 17.3711C103.395 17.3711 102.76 18.1523 102.76 19.3438C102.76 20.5742 103.375 21.3555 104.342 21.3555C104.967 21.3555 105.445 21.0234 105.592 20.4375H106.432C106.295 21.3848 105.523 22.1074 104.342 22.1074ZM107.467 22V16.6973H108.277V17.5078H108.336C108.531 16.9707 109.078 16.6094 109.703 16.6094C109.83 16.6094 110.045 16.6191 110.143 16.6289V17.4785C110.084 17.459 109.85 17.4199 109.635 17.4199C108.873 17.4199 108.307 17.9473 108.307 18.6602V22H107.467ZM112.955 22.1074C111.51 22.1074 110.533 21.0234 110.533 19.373C110.533 17.7227 111.51 16.6289 112.955 16.6289C114.391 16.6289 115.357 17.7227 115.357 19.373C115.357 21.0234 114.391 22.1074 112.955 22.1074ZM112.955 21.3652C114.02 21.3652 114.518 20.4277 114.518 19.373C114.518 18.3184 114.02 17.3711 112.955 17.3711C111.871 17.3711 111.373 18.3184 111.373 19.373C111.373 20.4277 111.871 21.3652 112.955 21.3652Z" fill="black"/>
<path d="M68.4717 46.1885C66.0836 46.1837 64.6623 44.3032 64.6671 41.0594C64.6671 37.8253 66.0981 35.9641 68.4717 35.9641C70.8405 35.9641 72.2762 37.8301 72.2762 41.0594C72.2714 44.3128 70.855 46.1885 68.4717 46.1885ZM66.4606 41.0594C66.4606 43.4378 67.2293 44.6802 68.4717 44.6802C69.7093 44.6802 70.4779 43.4378 70.4779 41.0594C70.4731 38.6954 69.7044 37.4482 68.4717 37.4482C67.2341 37.4482 66.4655 38.6954 66.4606 41.0594ZM73.8524 46L78.15 37.6609V37.5884H73.1707V36.0994H79.9967V37.6271L75.7039 46H73.8524ZM82.056 44.8059C81.4711 44.8059 80.9876 44.3322 80.9973 43.7472C80.9876 43.1671 81.4711 42.6982 82.056 42.6982C82.6265 42.6982 83.1099 43.1671 83.1147 43.7472C83.1099 44.3322 82.6265 44.8059 82.056 44.8059ZM80.9973 38.8405C80.9876 38.2604 81.4711 37.7914 82.056 37.7914C82.6265 37.7914 83.1099 38.2604 83.1147 38.8405C83.1099 39.4254 82.6265 39.8992 82.056 39.8992C81.4711 39.8992 80.9876 39.4254 80.9973 38.8405ZM84.7876 46L84.7828 44.7093L88.2779 41.3398C89.2786 40.3391 89.8007 39.7493 89.8056 38.9227C89.8007 37.9945 89.0707 37.4144 88.0991 37.4144C87.0839 37.4144 86.4264 38.0525 86.4312 39.058H84.7393C84.7296 37.1823 86.1364 35.9641 88.1232 35.9641C90.1391 35.9641 91.5024 37.1727 91.5072 38.8308C91.5024 39.9523 90.9658 40.8564 89.0176 42.6934L87.2627 44.4385V44.511H91.6571V46H84.7876ZM96.728 46.1354C94.7556 46.1354 93.2957 44.9558 93.2425 43.3122H94.9731C95.036 44.1195 95.795 44.6948 96.728 44.6948C97.8399 44.6948 98.6327 43.8971 98.6327 42.7949C98.6327 41.6685 97.8157 40.866 96.6748 40.8564C95.9062 40.8515 95.3454 41.1222 95.0312 41.7023H93.3875L93.9773 36.0994H99.8267V37.5884H95.4469L95.1472 40.2182H95.2342C95.6209 39.7831 96.3412 39.4689 97.1582 39.4689C98.9952 39.4689 100.359 40.8419 100.359 42.7465C100.359 44.7238 98.8696 46.1354 96.728 46.1354Z" fill="black"/>
<path d="M118.974 37.8301C118.974 40.1215 120.072 42.3743 122.044 43.2445L121.121 44.4579C119.724 43.7714 118.742 42.4613 118.211 40.8467C117.674 42.5532 116.669 43.9696 115.247 44.6851L114.29 43.4523C116.301 42.5145 117.423 40.1312 117.432 37.8301V35.8529H118.974V37.8301ZM120.676 40.0829V38.855H123.262V34.8619H124.771V47.2376H123.262V40.0829H120.676ZM132.945 35.8867C132.945 37.4385 134.69 39.0145 137.32 39.3529L136.72 40.5808C134.622 40.2714 132.955 39.2417 132.152 37.8446C131.34 39.2417 129.677 40.2714 127.598 40.5808L126.994 39.3529C129.609 39.0145 131.35 37.4482 131.35 35.8867V35.2535H132.945V35.8867ZM126.511 42.9061V41.654H137.769V42.9061H132.863V47.2086H131.359V42.9061H126.511ZM143.275 38.3667C143.275 40.3971 144.464 42.529 146.451 43.3605L145.625 44.5594C144.165 43.9261 143.091 42.6305 142.526 41.0594C141.96 42.7562 140.877 44.1823 139.427 44.8688L138.552 43.6699C140.505 42.7756 141.719 40.4744 141.728 38.3667V37.3273H139.007V36.0801H145.973V37.3273H143.275V38.3667ZM147.36 47.2086V34.8619H148.893V47.2086H147.36ZM155.631 41.1561V42.5919H151.179V41.1561H155.631ZM159 35.5628V37.3177H161.761V35.5628H163.264V37.8591H165.749V34.8619H167.267V42.0166H165.749V39.1064H163.264V41.4365H157.473V35.5628H159ZM159 40.2182H161.761V38.5117H159V40.2182ZM159.044 47.0635V42.5483H167.267V47.0635H159.044ZM160.562 45.8356H165.778V43.7617H160.562V45.8356ZM179.671 34.8619V47.2086H178.235V34.8619H179.671ZM168.886 43.5297C171.443 42.0117 172.628 40.0829 172.855 37.5981H169.548V36.3653H174.368C174.368 36.989 174.324 37.5932 174.237 38.1782H175.678V35.1616H177.123V46.6333H175.678V42.4952H173.749V41.2624H175.678V39.4157H173.971C173.387 41.4703 172.101 43.23 169.785 44.6077L168.886 43.5297Z" fill="black"/>
<rect x="223" y="20.5" width="73" height="20" rx="10" fill="#EDA33C"/>
<path d="M238.686 26.5511V31.7065H237.602V30.7327H235.499V29.8557H237.602V28.8992H235.586C235.03 30.3046 233.738 31.2887 231.815 31.8239L231.383 30.9675C233.445 30.4047 234.546 29.3584 234.719 28.0463H231.849V27.1623H235.9C235.9 27.4696 235.876 27.7597 235.827 28.0394H237.602V26.5511H238.686ZM232.771 33.5573C232.768 32.4765 233.956 31.8066 235.765 31.8066C237.554 31.8066 238.742 32.4765 238.745 33.5573C238.742 34.645 237.554 35.3253 235.765 35.3218C233.956 35.3253 232.768 34.645 232.771 33.5573ZM233.856 33.5573C233.852 34.1409 234.577 34.4586 235.765 34.4586C236.932 34.4586 237.654 34.1409 237.661 33.5573C237.654 32.9738 236.932 32.6526 235.765 32.6595C234.577 32.6526 233.852 32.9738 233.856 33.5573ZM248.006 33.4468V34.3446H239.936V33.4468H243.413V32.0069H240.893V29.1202H245.975V28.0221H240.879V27.145H247.049V29.98H241.977V31.1195H247.253V32.0069H244.491V33.4468H248.006ZM259.011 31.5166V32.4109H255.489V35.3702H254.415V32.4109H250.941V31.5166H259.011ZM251.787 28.8405C251.784 27.6285 253.075 26.8584 254.954 26.8584C256.836 26.8584 258.134 27.6285 258.134 28.8405C258.134 30.0318 256.836 30.7914 254.954 30.7914C253.075 30.7914 251.784 30.0318 251.787 28.8405ZM252.906 28.8405C252.899 29.5242 253.707 29.9282 254.954 29.9282C256.207 29.9282 257.012 29.5242 257.015 28.8405C257.012 28.143 256.207 27.732 254.954 27.732C253.707 27.732 252.899 28.143 252.906 28.8405ZM266.946 26.5442V35.3633H265.862V26.5442H266.946ZM259.636 32.922C260.337 32.9151 261.134 32.9116 261.967 32.8909V32.076C260.972 31.9206 260.326 31.3128 260.33 30.4738C260.326 29.4827 261.207 28.8198 262.495 28.8198C263.793 28.8198 264.691 29.4827 264.691 30.4738C264.691 31.3059 264.042 31.9102 263.051 32.0725V32.8529C263.828 32.8149 264.608 32.7528 265.347 32.6561L265.426 33.4675C263.482 33.7921 261.376 33.8163 259.784 33.8163L259.636 32.922ZM259.819 28.4192V27.5628H261.967V26.5718H263.054V27.5628H265.188V28.4192H259.819ZM261.359 30.4738C261.352 30.9848 261.828 31.2852 262.495 31.2818C263.185 31.2852 263.652 30.9848 263.652 30.4738C263.652 29.9627 263.185 29.6519 262.495 29.6519C261.828 29.6519 261.352 29.9627 261.359 30.4738ZM273.745 32.2866C273.745 33.0221 274.08 33.7852 274.84 34.2686C275.606 33.7541 275.966 32.953 275.966 32.2866V31.924H277.036V32.2866C277.029 33.2051 277.575 34.0753 278.738 34.4448L278.207 35.2355C277.35 34.9454 276.777 34.3826 276.47 33.6782C276.187 34.3757 275.669 34.9938 274.868 35.3149C274.028 35.0041 273.504 34.4102 273.224 33.7093C272.906 34.386 272.343 34.942 271.522 35.2355L270.986 34.4448C272.133 34.0407 272.682 33.143 272.689 32.2866V31.924H273.745V32.2866ZM270.769 29.1236C270.765 27.8805 271.784 27.0207 273.148 27.0207C274.508 27.0207 275.524 27.8805 275.524 29.1236C275.524 30.346 274.508 31.2127 273.148 31.2093C271.784 31.2127 270.765 30.346 270.769 29.1236ZM271.829 29.1236C271.825 29.8419 272.378 30.308 273.148 30.308C273.904 30.308 274.457 29.8419 274.457 29.1236C274.457 28.395 273.904 27.9323 273.148 27.9358C272.378 27.9323 271.825 28.395 271.829 29.1236ZM276.87 31.5511V26.5511H277.958V31.5511H276.87ZM283.268 26.7169C285.219 26.7169 286.445 27.3591 286.445 28.4296C286.445 29.4896 285.219 30.1215 283.268 30.1181C281.331 30.1215 280.085 29.4896 280.088 28.4296C280.085 27.3591 281.331 26.7169 283.268 26.7169ZM279.252 31.5856V30.712H287.295V31.5856H279.252ZM280.202 35.2597V32.2866H286.321V35.2597H280.202ZM281.214 28.4296C281.207 28.9682 281.973 29.2686 283.268 29.2721C284.553 29.2686 285.33 28.9682 285.33 28.4296C285.33 27.8736 284.553 27.5698 283.268 27.5698C281.973 27.5698 281.207 27.8736 281.214 28.4296ZM281.273 34.3826H285.264V33.1499H281.273V34.3826Z" fill="white"/>
<mask id="path-9-inside-1_15_797" fill="white">
<path d="M0 61H312V131C312 135.418 308.418 139 304 139H8C3.58172 139 0 135.418 0 131V61Z"/>
</mask>
<path d="M0 61H312H0ZM313 131C313 135.971 308.971 140 304 140H8C3.02944 140 -1 135.971 -1 131H1C1 134.866 4.13401 138 8 138H304C307.866 138 311 134.866 311 131H313ZM8 140C3.02944 140 -1 135.971 -1 131V61H1V131C1 134.866 4.13401 138 8 138V140ZM313 61V131C313 135.971 308.971 140 304 140V138C307.866 138 311 134.866 311 131V61H313Z" fill="#DEDEDE" mask="url(#path-9-inside-1_15_797)"/>
<path d="M24.3494 80.2707V81.134H16.2935V80.2707H19.7914V79.4247H17.2845V76.4413H23.3722V77.2942H18.3619V78.5684H23.4206V79.4247H20.855V80.2707H24.3494ZM17.2293 83.2576C17.2293 82.2251 18.386 81.6416 20.3025 81.6416C22.212 81.6416 23.3584 82.2251 23.3619 83.2576C23.3584 84.2831 22.212 84.8667 20.3025 84.8702C18.386 84.8667 17.2293 84.2831 17.2293 83.2576ZM18.3343 83.2576C18.3273 83.7686 19.0214 84.0345 20.3025 84.0276C21.5698 84.0345 22.2707 83.7686 22.2776 83.2576C22.2707 82.75 21.5698 82.4772 20.3025 82.4772C19.0214 82.4772 18.3273 82.75 18.3343 83.2576ZM29.5183 76.5138C29.5148 77.5048 30.7337 78.5235 32.55 78.741L32.1495 79.5974C30.6923 79.3936 29.5286 78.7238 28.9623 77.8122C28.396 78.7272 27.2358 79.3902 25.7717 79.5974L25.3505 78.741C27.1806 78.5235 28.396 77.5152 28.3995 76.5138V76.1858H29.5183V76.5138ZM24.9361 81.0166V80.1568H32.9782V81.0166H24.9361ZM25.8719 83.2783C25.8719 82.2493 27.0217 81.6865 28.9451 81.6899C30.8477 81.6865 32.001 82.2493 32.0045 83.2783C32.001 84.2935 30.8477 84.8667 28.9451 84.8702C27.0217 84.8667 25.8719 84.2935 25.8719 83.2783ZM26.9768 83.2783C26.9699 83.7825 27.664 84.0345 28.9451 84.0276C30.2123 84.0345 30.9133 83.7825 30.9202 83.2783C30.9133 82.7742 30.2123 82.5186 28.9451 82.5117C27.664 82.5186 26.9699 82.7742 26.9768 83.2783ZM36.7451 78.5477C36.7382 79.9151 37.5566 81.4655 38.9481 82.1146L38.3404 82.971C37.3459 82.5083 36.6104 81.5587 36.2133 80.4537C35.8128 81.6657 35.0428 82.7017 34.031 83.192L33.3922 82.3356C34.7976 81.6727 35.6539 80.0186 35.6574 78.5477V77.8052H33.7341V76.9144H38.589V77.8052H36.7451V78.5477ZM39.4039 84.8633V76.0442H40.4916V79.4765H41.8521V80.3881H40.4916V84.8633H39.4039ZM49.1342 76.0442V79.4903H50.4429V80.3916H49.1342V84.8494H48.0465V76.0442H49.1342ZM42.1764 82.4392C44.3241 81.3619 45.4844 79.8633 45.6985 77.8536H42.646V76.9593H46.8034C46.7965 79.5525 45.7226 81.8315 42.7875 83.2749L42.1764 82.4392ZM55.6057 76.683C56.9385 76.6865 57.895 77.895 57.9019 79.8011C57.895 81.721 56.9385 82.9296 55.6057 82.9261C54.2693 82.9296 53.3094 81.721 53.3128 79.8011C53.3094 77.895 54.2693 76.6865 55.6057 76.683ZM54.3591 79.8011C54.3557 81.1581 54.8667 81.9454 55.6057 81.9454C56.3584 81.9454 56.8557 81.1581 56.8557 79.8011C56.8557 78.4544 56.3584 77.6637 55.6057 77.6637C54.8667 77.6637 54.3557 78.4544 54.3591 79.8011ZM59.0621 84.8633V76.0442H60.1499V79.4351H61.5103V80.3467H60.1499V84.8633H59.0621ZM65.2323 77.5773C65.2323 78.6651 65.9817 79.7528 67.387 80.1878L66.8311 81.0269C65.8263 80.7093 65.1011 80.0428 64.7006 79.2037C64.3 80.1153 63.5507 80.8405 62.5079 81.1961L61.9451 80.357C63.3677 79.8805 64.1274 78.7307 64.1308 77.5773V77.4669H62.2317V76.5932H67.0901V77.4669H65.2323V77.5773ZM63.2089 82.6499V81.7762H69.2275V84.8633H68.1398V82.6499H63.2089ZM68.1398 81.3653V76.0442H69.2275V81.3653H68.1398ZM77.3529 76.8419V77.7327H74.4144V81.8384C75.7991 81.8315 76.7694 81.7762 77.8674 81.5691L77.9814 82.453C76.7418 82.6913 75.6748 82.7396 74.0277 82.7362H73.3198V76.8419H77.3529ZM76.8868 80.0394V79.1485H79.2176V76.0442H80.3018V84.884H79.2176V80.0394H76.8868ZM91.276 76.0442V80.5884H90.1849V76.0442H91.276ZM84.0557 79.5076C84.3734 79.5041 84.7153 79.5041 85.0675 79.4972V77.4461H84.294V76.607H89.0868V77.4461H88.2961V79.366C88.6932 79.3384 89.0833 79.3004 89.4563 79.2555L89.5046 80.0359C87.7505 80.3122 85.7166 80.3709 84.1766 80.364L84.0557 79.5076ZM85.3506 81.8073V80.9648H91.276V83.2369H86.4487V83.9275H91.5523V84.7907H85.3713V82.4496H90.1987V81.8073H85.3506ZM86.1068 79.4765C86.4867 79.4627 86.87 79.4489 87.2567 79.4316V77.4461H86.1068V79.4765ZM100.623 82.9054V83.7963H92.5533V82.9054H94.4179V80.6713C93.7135 80.2673 93.2888 79.6354 93.2922 78.8515C93.2888 77.4461 94.6665 76.5173 96.5692 76.5138C98.4718 76.5173 99.8599 77.4461 99.8599 78.8515C99.8599 79.6215 99.4455 80.2431 98.7618 80.6506V82.9054H100.623ZM94.3558 78.8515C94.3558 79.7562 95.2466 80.3329 96.5692 80.3329C97.8813 80.3329 98.7929 79.7562 98.7929 78.8515C98.7929 77.933 97.8813 77.3771 96.5692 77.3805C95.2466 77.3771 94.3558 77.933 94.3558 78.8515ZM95.4918 82.9054H97.6638V81.0684C97.3254 81.1409 96.9594 81.1789 96.5692 81.1789C96.1859 81.1789 95.8268 81.1409 95.4918 81.0684V82.9054ZM105.502 77.4461V78.3198H101.179V77.4461H102.815V76.2963H103.889V77.4461H105.502ZM101.427 80.8405C101.424 79.6354 102.235 78.7825 103.354 78.779C104.476 78.7825 105.277 79.6354 105.281 80.8405C105.277 82.0594 104.476 82.9157 103.354 82.9157C102.235 82.9157 101.424 82.0594 101.427 80.8405ZM102.384 80.8405C102.38 81.5518 102.781 81.9938 103.354 81.9903C103.917 81.9938 104.321 81.5518 104.324 80.8405C104.321 80.143 103.917 79.6837 103.354 79.6837C102.781 79.6837 102.38 80.143 102.384 80.8405ZM105.868 84.4662V76.2307H106.886V79.6768H107.753V76.0442H108.786V84.8633H107.753V80.5539H106.886V84.4662H105.868ZM117.908 82.9054V83.7963H109.838V82.9054H111.703V80.6713C110.999 80.2673 110.574 79.6354 110.577 78.8515C110.574 77.4461 111.952 76.5173 113.854 76.5138C115.757 76.5173 117.145 77.4461 117.145 78.8515C117.145 79.6215 116.731 80.2431 116.047 80.6506V82.9054H117.908ZM111.641 78.8515C111.641 79.7562 112.532 80.3329 113.854 80.3329C115.166 80.3329 116.078 79.7562 116.078 78.8515C116.078 77.933 115.166 77.3771 113.854 77.3805C112.532 77.3771 111.641 77.933 111.641 78.8515ZM112.777 82.9054H114.949V81.0684C114.611 81.1409 114.245 81.1789 113.854 81.1789C113.471 81.1789 113.112 81.1409 112.777 81.0684V82.9054ZM119.551 84.076C119.134 84.076 118.788 83.7376 118.795 83.3198C118.788 82.9054 119.134 82.5704 119.551 82.5704C119.959 82.5704 120.304 82.9054 120.308 83.3198C120.304 83.7376 119.959 84.076 119.551 84.076Z" fill="black"/>
<path d="M263.809 84.1172C261.945 84.1172 260.609 83.0859 260.574 81.6094H262.355C262.391 82.2422 263 82.6641 263.82 82.6641C264.664 82.6641 265.273 82.1836 265.262 81.5039C265.273 80.8125 264.652 80.3203 263.656 80.3203H262.871V79.0195H263.656C264.488 79.0195 265.074 78.5625 265.074 77.8945C265.074 77.25 264.582 76.8047 263.832 76.8047C263.082 76.8047 262.461 77.2266 262.438 77.8711H260.75C260.773 76.4062 262.098 75.3984 263.832 75.3984C265.602 75.3984 266.785 76.4414 266.773 77.7891C266.785 78.7383 266.117 79.418 265.168 79.582V79.6523C266.41 79.8047 267.102 80.5664 267.09 81.6211C267.102 83.0742 265.719 84.1172 263.809 84.1172ZM272.012 75.1172L269.27 85.2773H267.781L270.512 75.1172H272.012ZM276.441 75.5156V84H274.672V77.1914H274.625L272.68 78.4102V76.8516L274.777 75.5156H276.441ZM278.41 84L278.398 82.7227L281.445 79.9219C282.242 79.1602 282.664 78.6914 282.664 78.0234C282.664 77.2734 282.09 76.8047 281.316 76.8047C280.52 76.8047 280.004 77.3086 280.004 78.1172H278.328C278.316 76.4531 279.547 75.3984 281.34 75.3984C283.156 75.3984 284.363 76.4297 284.363 77.9062C284.363 78.8672 283.895 79.6641 282.148 81.2461L280.859 82.5V82.5469H284.48V84H278.41ZM294.312 74.4258V82.0898H292.812V74.4258H294.312ZM294.594 83.6953V84.8906H287.164V81.3164H288.676V83.6953H294.594ZM288.465 75.1055C290.105 75.1055 291.383 76.2305 291.383 77.7891C291.383 79.3828 290.105 80.4961 288.465 80.4961C286.824 80.4961 285.547 79.3828 285.547 77.7891C285.547 76.2305 286.824 75.1055 288.465 75.1055ZM288.465 76.4062C287.633 76.3945 287 76.9219 287.012 77.7891C287 78.6797 287.633 79.1953 288.465 79.1953C289.273 79.1953 289.906 78.6797 289.906 77.7891C289.906 76.9219 289.273 76.3945 288.465 76.4062Z" fill="black"/>
<rect x="16" y="103" width="280" height="6" rx="3" fill="#E6E6E6"/>
<rect x="16" y="103" width="70" height="6" rx="3" fill="#3C5AED"/>
<path d="M99.9141 122.352V123.625C100.582 123.598 101.266 123.539 101.906 123.445L101.953 123.898C100.367 124.188 98.6562 124.195 97.4062 124.195L97.3203 123.688C97.9023 123.684 98.5898 123.68 99.3125 123.656V122.352H99.9141ZM101.547 119.602V120.109H99.9141C99.9297 121.008 100.676 121.738 101.703 122.031L101.414 122.516C100.578 122.266 99.9258 121.73 99.6172 121.023C99.3125 121.77 98.6641 122.324 97.8281 122.578L97.5312 122.109C98.5586 121.809 99.2812 121.047 99.2969 120.109H97.7031V119.602H99.3125V118.742H99.9141V119.602H101.547ZM102.977 118.688V125.648H102.367V118.688H102.977ZM110.555 124.219V124.727H104.195V124.219H107.039V122.516H107.641V124.219H110.555ZM107.656 119.695C107.656 120.859 109.031 121.875 110.242 122.086L109.969 122.594C108.91 122.379 107.793 121.66 107.344 120.656C106.887 121.656 105.777 122.379 104.719 122.594L104.445 122.086C105.656 121.875 107.016 120.859 107.016 119.695V119.164H107.656V119.695ZM119.445 121.781V122.258H116.578V122.906H118.633V124.406H114.508V125.086H118.844V125.555H113.898V123.969H118.031V123.367H113.883V122.906H115.977V122.258H113.125V121.781H119.445ZM116.578 118.648V119.297H118.805V119.781H116.625C116.738 120.473 117.824 120.91 119.102 120.992L118.914 121.461C117.754 121.363 116.707 121.004 116.281 120.344C115.855 121.004 114.809 121.363 113.641 121.461L113.461 120.992C114.73 120.91 115.816 120.473 115.938 119.781H113.773V119.297H115.977V118.648H116.578ZM120.93 118.984V119.984H122.953V118.984H123.562V122.008H120.328V118.984H120.93ZM120.93 121.508H122.953V120.461H120.93V121.508ZM125.461 118.688V120.195H126.508V120.711H125.461V122.281H124.852V118.688H125.461ZM125.461 122.609V124.289H121.648V125.055H125.719V125.555H121.047V123.82H124.852V123.102H121.031V122.609H125.461ZM134.695 118.688V125.633H134.078V118.688H134.695ZM132.641 119.445C132.633 121.445 131.703 123.211 129.375 124.328L129.039 123.828C130.918 122.938 131.875 121.605 132.016 119.945H129.359V119.445H132.641ZM139.43 119.555C139.422 120.406 140.594 121.102 141.82 121.273L141.578 121.758C140.457 121.598 139.41 121.035 139.031 120.219C138.656 121.035 137.613 121.598 136.484 121.758L136.258 121.273C137.484 121.102 138.633 120.406 138.633 119.555V119.539H136.445V119.039H141.633V119.539H139.43V119.555ZM142.219 122.266V122.773H139.391V124.195H138.781V122.773H135.859V122.266H142.219ZM141.508 124.969V125.484H136.672V123.5H137.289V124.969H141.508Z" fill="black"/>
<path d="M212.609 122.891V123.406H209.742V125.648H209.141V123.406H206.281V122.891H212.609ZM209.75 120.062C209.75 120.93 210.961 121.688 212.203 121.859L211.977 122.352C210.902 122.188 209.891 121.648 209.453 120.891C209.008 121.656 207.98 122.188 206.906 122.352L206.68 121.859C207.914 121.688 209.141 120.938 209.141 120.062V120.055H206.898V119.555H209.141V118.688H209.742V119.555H212V120.055H209.75V120.062ZM218.57 118.688V121.516H219.695V122.031H218.57V125.633H217.961V118.688H218.57ZM216.773 119.438C216.773 121.406 215.852 123.195 213.586 124.312L213.242 123.828C215.039 122.934 216.016 121.598 216.156 119.953H213.562V119.438H216.773ZM228.477 124.227V124.742H222.117V124.227H223.695V122.352C223.102 122.043 222.742 121.543 222.742 120.914C222.742 119.836 223.797 119.133 225.281 119.125C226.766 119.133 227.82 119.836 227.82 120.914C227.82 121.531 227.473 122.027 226.898 122.336V124.227H228.477ZM225.281 119.633C224.141 119.625 223.336 120.141 223.336 120.914C223.336 121.688 224.141 122.211 225.281 122.211C226.414 122.211 227.227 121.688 227.227 120.914C227.227 120.141 226.414 119.625 225.281 119.633ZM224.297 124.227H226.281V122.57C225.98 122.652 225.645 122.695 225.281 122.695C224.926 122.695 224.594 122.656 224.297 122.578V124.227ZM234.555 119.062V119.578C234.555 120.117 234.555 120.75 234.375 121.617H235.391V122.125H229.031V121.617H233.758C233.945 120.746 233.945 120.117 233.945 119.578V119.57H229.836V119.062H234.555ZM234.586 123.086V125.539H229.812V123.086H234.586ZM230.422 123.57V125.039H233.977V123.57H230.422ZM239.336 122.766V123.633H240.602V122.766H241.172V125.539H238.758V122.766H239.336ZM239.336 125.055H240.602V124.102H239.336V125.055ZM243.156 123.312C243.148 124.047 243.586 124.812 244.438 125.125L244.117 125.594C243.477 125.336 243.055 124.848 242.844 124.266C242.621 124.836 242.199 125.328 241.586 125.594L241.266 125.125C242.102 124.781 242.547 124.016 242.547 123.312V122.719H243.156V123.312ZM239.867 119C240.797 119 241.508 119.527 241.641 120.328H243.094V118.688H243.711V122.367H243.094V120.836H241.648C241.523 121.656 240.809 122.195 239.867 122.195C238.812 122.195 238.062 121.547 238.062 120.594C238.062 119.648 238.812 119 239.867 119ZM239.867 119.516C239.156 119.516 238.648 119.961 238.648 120.594C238.648 121.234 239.156 121.688 239.867 121.688C240.57 121.688 241.07 121.234 241.07 120.594C241.07 119.961 240.57 119.516 239.867 119.516ZM248.031 118.844C249.539 118.844 250.484 119.328 250.484 120.164C250.484 120.984 249.539 121.461 248.031 121.461C246.523 121.461 245.57 120.984 245.57 120.164C245.57 119.328 246.523 118.844 248.031 118.844ZM248.031 119.336C246.906 119.336 246.195 119.648 246.203 120.164C246.195 120.672 246.906 120.969 248.031 120.977C249.141 120.969 249.859 120.672 249.859 120.164C249.859 119.648 249.141 119.336 248.031 119.336ZM250.422 123.258V125.539H245.641V123.258H250.422ZM246.25 123.75V125.039H249.82V123.75H246.25ZM251.195 122.062V122.57H244.867V122.062H251.195Z" fill="black"/>
</svg>
