<svg width="312" height="139" viewBox="0 0 312 139" fill="none" xmlns="http://www.w3.org/2000/svg">
<path d="M0.5 8C0.5 3.85787 3.85786 0.5 8 0.5H304C308.142 0.5 311.5 3.85786 311.5 8V60.5H0.5V8Z" stroke="#DEDEDE"/>
<rect x="16" y="14.5" width="32" height="32" rx="6" fill="#F2F2F2"/>
<path d="M26 40C25.7167 40 25.4792 39.9042 25.2875 39.7125C25.0958 39.5208 25 39.2833 25 39V36.95C24.7 36.6167 24.4583 36.2458 24.275 35.8375C24.0917 35.4292 24 34.9833 24 34.5V25C24 23.6167 24.6417 22.6042 25.925 21.9625C27.2083 21.3208 29.2333 21 32 21C34.8667 21 36.9167 21.3083 38.15 21.925C39.3833 22.5417 40 23.5667 40 25V34.5C40 34.9833 39.9083 35.4292 39.725 35.8375C39.5417 36.2458 39.3 36.6167 39 36.95V39C39 39.2833 38.9042 39.5208 38.7125 39.7125C38.5208 39.9042 38.2833 40 38 40H37C36.7167 40 36.4792 39.9042 36.2875 39.7125C36.0958 39.5208 36 39.2833 36 39V38H28V39C28 39.2833 27.9042 39.5208 27.7125 39.7125C27.5208 39.9042 27.2833 40 27 40H26ZM26 29H38V26H26V29ZM28.5 35C28.9167 35 29.2708 34.8542 29.5625 34.5625C29.8542 34.2708 30 33.9167 30 33.5C30 33.0833 29.8542 32.7292 29.5625 32.4375C29.2708 32.1458 28.9167 32 28.5 32C28.0833 32 27.7292 32.1458 27.4375 32.4375C27.1458 32.7292 27 33.0833 27 33.5C27 33.9167 27.1458 34.2708 27.4375 34.5625C27.7292 34.8542 28.0833 35 28.5 35ZM35.5 35C35.9167 35 36.2708 34.8542 36.5625 34.5625C36.8542 34.2708 37 33.9167 37 33.5C37 33.0833 36.8542 32.7292 36.5625 32.4375C36.2708 32.1458 35.9167 32 35.5 32C35.0833 32 34.7292 32.1458 34.4375 32.4375C34.1458 32.7292 34 33.0833 34 33.5C34 33.9167 34.1458 34.2708 34.4375 34.5625C34.7292 34.8542 35.0833 35 35.5 35ZM26.45 24H37.65C37.4 23.7167 36.8625 23.4792 36.0375 23.2875C35.2125 23.0958 33.8833 23 32.05 23C30.2667 23 28.9625 23.1042 28.1375 23.3125C27.3125 23.5208 26.75 23.75 26.45 24ZM28 36H36C36.55 36 37.0208 35.8042 37.4125 35.4125C37.8042 35.0208 38 34.55 38 34V31H26V34C26 34.55 26.1958 35.0208 26.5875 35.4125C26.9792 35.8042 27.45 36 28 36Z" fill="#191919"/>
<path d="M64.6738 22V16.6973H65.4844V17.5273H65.5527C65.7773 16.9609 66.2852 16.6289 66.9785 16.6289C67.6719 16.6289 68.1406 16.9609 68.3945 17.5273H68.4531C68.7266 16.9805 69.2832 16.6289 70.0449 16.6289C70.9922 16.6289 71.666 17.2051 71.666 18.4551V22H70.8262V18.4648C70.8262 17.6836 70.3281 17.3809 69.752 17.3809C69.0098 17.3809 68.5898 17.8789 68.5898 18.5527V22H67.7402V18.377C67.7402 17.7812 67.3105 17.3809 66.7051 17.3809C66.0703 17.3809 65.5137 17.918 65.5137 18.6895V22H64.6738ZM75.1816 22.1074C73.7363 22.1074 72.7598 21.0234 72.7598 19.373C72.7598 17.7227 73.7363 16.6289 75.1816 16.6289C76.6172 16.6289 77.584 17.7227 77.584 19.373C77.584 21.0234 76.6172 22.1074 75.1816 22.1074ZM75.1816 21.3652C76.2461 21.3652 76.7441 20.4277 76.7441 19.373C76.7441 18.3184 76.2461 17.3711 75.1816 17.3711C74.0977 17.3711 73.5996 18.3184 73.5996 19.373C73.5996 20.4277 74.0977 21.3652 75.1816 21.3652ZM82.8574 16.6973L80.8945 22H80.0254L78.0723 16.6973H78.9902L80.4355 20.9062H80.4941L81.9395 16.6973H82.8574ZM85.8164 22.1074C84.2832 22.1074 83.3359 21.0234 83.3359 19.3926C83.3359 17.7617 84.293 16.6289 85.7383 16.6289C86.8516 16.6289 88.0234 17.3125 88.0234 19.2754V19.627H84.1758C84.2148 20.75 84.8691 21.3652 85.8164 21.3652C86.4512 21.3652 86.8516 21.0918 87.0469 20.7598H87.9453C87.6914 21.5605 86.9102 22.1074 85.8164 22.1074ZM84.1855 18.9141H87.1738C87.1738 18.0254 86.6074 17.3711 85.7383 17.3711C84.8203 17.3711 84.2344 18.0938 84.1855 18.9141ZM89.7129 22.0586C89.3711 22.0586 89.0781 21.7754 89.0879 21.4238C89.0781 21.082 89.3711 20.7988 89.7129 20.7988C90.0547 20.7988 90.3379 21.082 90.3379 21.4238C90.3379 21.7754 90.0547 22.0586 89.7129 22.0586ZM92.291 16.6973L93.541 18.8555L94.8008 16.6973H95.7676L94.0586 19.3438L95.7676 22H94.8105L93.541 19.9492L92.291 22H91.3242L92.9941 19.3438L91.3242 16.6973H92.291ZM97.623 14.9297V22H96.7832V14.9297H97.623ZM98.707 20.4961C98.707 19.2754 99.7812 19.002 100.699 18.9336C101.036 18.9092 101.896 18.8652 102.135 18.8555V18.4258C102.135 17.752 101.734 17.3613 100.934 17.3613C100.26 17.3613 99.8594 17.6738 99.7422 18.0742H98.8633C98.9707 17.2246 99.8008 16.6289 100.973 16.6289C101.666 16.6289 102.965 16.834 102.965 18.5039V22H102.135V21.2773H102.096C101.92 21.6387 101.432 22.127 100.514 22.127C99.5078 22.127 98.707 21.5312 98.707 20.4961ZM99.5469 20.5352C99.5469 21.0918 100.016 21.375 100.66 21.375C101.607 21.375 102.135 20.7402 102.135 20.0762V19.5391L100.797 19.6367C100.035 19.6855 99.5469 19.959 99.5469 20.5352ZM104.312 22V16.6973H105.123V17.5078H105.182C105.377 16.9707 105.924 16.6094 106.549 16.6094C106.676 16.6094 106.891 16.6191 106.988 16.6289V17.4785C106.93 17.459 106.695 17.4199 106.48 17.4199C105.719 17.4199 105.152 17.9473 105.152 18.6602V22H104.312ZM109.781 24.0996C108.502 24.0996 107.633 23.543 107.535 22.5566H108.414C108.531 23.0938 109.029 23.3672 109.781 23.3672C110.689 23.3672 111.246 22.9766 111.246 22.0977V21.0234H111.178C111.002 21.3164 110.66 21.9219 109.635 21.9219C108.346 21.9219 107.379 20.9453 107.379 19.2754C107.379 17.6445 108.316 16.6289 109.645 16.6289C110.67 16.6289 111.002 17.2539 111.197 17.5371H111.266V16.6973H112.086V22.1465C112.086 23.5137 111.07 24.0996 109.781 24.0996ZM109.752 21.1699C110.719 21.1699 111.266 20.4766 111.266 19.3047C111.266 18.1719 110.738 17.3809 109.752 17.3809C108.736 17.3809 108.229 18.2402 108.229 19.3047C108.229 20.4082 108.746 21.1699 109.752 21.1699ZM115.65 22.1074C114.117 22.1074 113.17 21.0234 113.17 19.3926C113.17 17.7617 114.127 16.6289 115.572 16.6289C116.686 16.6289 117.857 17.3125 117.857 19.2754V19.627H114.01C114.049 20.75 114.703 21.3652 115.65 21.3652C116.285 21.3652 116.686 21.0918 116.881 20.7598H117.779C117.525 21.5605 116.744 22.1074 115.65 22.1074ZM114.02 18.9141H117.008C117.008 18.0254 116.441 17.3711 115.572 17.3711C114.654 17.3711 114.068 18.0938 114.02 18.9141Z" fill="black"/>
<path d="M68.4717 46.1885C66.0836 46.1837 64.6623 44.3032 64.6671 41.0594C64.6671 37.8253 66.0981 35.9641 68.4717 35.9641C70.8405 35.9641 72.2762 37.8301 72.2762 41.0594C72.2714 44.3128 70.855 46.1885 68.4717 46.1885ZM66.4606 41.0594C66.4606 43.4378 67.2293 44.6802 68.4717 44.6802C69.7093 44.6802 70.4779 43.4378 70.4779 41.0594C70.4731 38.6954 69.7044 37.4482 68.4717 37.4482C67.2341 37.4482 66.4655 38.6954 66.4606 41.0594ZM73.8524 46L78.15 37.6609V37.5884H73.1707V36.0994H79.9967V37.6271L75.7039 46H73.8524ZM82.056 44.8059C81.4711 44.8059 80.9876 44.3322 80.9973 43.7472C80.9876 43.1671 81.4711 42.6982 82.056 42.6982C82.6265 42.6982 83.1099 43.1671 83.1147 43.7472C83.1099 44.3322 82.6265 44.8059 82.056 44.8059ZM80.9973 38.8405C80.9876 38.2604 81.4711 37.7914 82.056 37.7914C82.6265 37.7914 83.1099 38.2604 83.1147 38.8405C83.1099 39.4254 82.6265 39.8992 82.056 39.8992C81.4711 39.8992 80.9876 39.4254 80.9973 38.8405ZM84.5991 44.1581V42.7369L88.8774 36.0994H91.1011V42.6934H92.4015V44.1581H91.1011V46H89.4043V44.1581H84.5991ZM86.4264 42.6934H89.4236V38.1202H89.3221L86.4264 42.616V42.6934ZM97.3295 46.1354C95.3572 46.1354 93.8972 44.9558 93.844 43.3122H95.5747C95.6375 44.1195 96.3965 44.6948 97.3295 44.6948C98.4414 44.6948 99.2342 43.8971 99.2342 42.7949C99.2342 41.6685 98.4172 40.866 97.2764 40.8564C96.5077 40.8515 95.9469 41.1222 95.6327 41.7023H93.9891L94.5788 36.0994H100.428V37.5884H96.0485L95.7487 40.2182H95.8358C96.2225 39.7831 96.9428 39.4689 97.7598 39.4689C99.5968 39.4689 100.96 40.8419 100.96 42.7465C100.96 44.7238 99.4711 46.1354 97.3295 46.1354Z" fill="black"/>
<path d="M121.319 35.5725V36.3267C121.309 37.1243 121.309 38.2265 121.01 39.6091L119.521 39.4883C119.748 38.3764 119.791 37.5159 119.801 36.8052H115.015V35.5725H121.319ZM114.28 40.5953C115.015 40.5953 115.832 40.5905 116.688 40.576V38.3039H118.196V40.5373C119.477 40.489 120.787 40.4068 121.991 40.2569L122.073 41.3253C119.501 41.7652 116.64 41.8329 114.416 41.8329L114.28 40.5953ZM115.885 44.8688C115.885 43.462 117.51 42.6015 120.125 42.6015C122.74 42.6015 124.36 43.462 124.36 44.8688C124.36 46.3336 122.74 47.1796 120.125 47.1796C117.51 47.1796 115.885 46.3336 115.885 44.8688ZM117.437 44.8688C117.427 45.6229 118.423 45.9903 120.125 45.9855C121.822 45.9903 122.798 45.6229 122.803 44.8688C122.798 44.1727 121.822 43.7762 120.125 43.7762C118.423 43.7762 117.427 44.1727 117.437 44.8688ZM122.716 42.4517V34.8619H124.263V38.0186H125.873V39.2852H124.263V42.4517H122.716ZM136.648 35.9883V37.25C136.638 38.7825 136.638 40.4454 136.194 42.8722L134.7 42.7224C135.125 40.4309 135.125 38.7438 135.125 37.25V37.2113H127.647V35.9883H136.648ZM126.511 45.6229V44.3757H129.034V40.4309H130.552V44.3757H132.123V40.4309H133.617V44.3757H137.769V45.6229H126.511ZM149.869 40.5276V41.7555H144.987V42.8046C147.191 42.9448 148.501 43.7086 148.506 44.9945C148.501 46.4109 146.886 47.2037 144.223 47.1989C141.53 47.2037 139.92 46.4109 139.92 44.9945C139.92 43.7037 141.235 42.9351 143.478 42.7997V41.7555H138.61V40.5276H149.869ZM139.152 38.768C141.424 38.5552 142.913 37.6319 143.169 36.6167H139.64V35.4033H148.859V36.6167H145.301C145.547 37.6367 147.017 38.5552 149.342 38.768L148.806 39.9669C146.562 39.7396 144.899 38.8501 144.228 37.5932C143.56 38.8453 141.917 39.7396 139.669 39.9669L139.152 38.768ZM141.467 44.9945C141.458 45.6713 142.429 46.0483 144.223 46.0387C145.997 46.0483 146.978 45.6713 146.988 44.9945C146.978 44.3032 145.997 43.9454 144.223 43.9358C142.429 43.9454 141.458 44.3032 141.467 44.9945ZM154.181 35.5628C156.085 35.558 157.502 36.7762 157.512 38.5214C157.502 40.2569 156.085 41.48 154.181 41.4848C152.271 41.48 150.835 40.2569 150.845 38.5214C150.835 36.7762 152.271 35.558 154.181 35.5628ZM152.257 44.8108C152.252 43.3025 153.876 42.4081 156.438 42.4081C158.971 42.4081 160.572 43.3025 160.572 44.8108C160.572 46.3094 158.971 47.2037 156.438 47.1989C153.876 47.2037 152.252 46.3094 152.257 44.8108ZM152.339 38.5214C152.329 39.5511 153.117 40.1941 154.181 40.1989C155.235 40.1941 156.023 39.5511 156.027 38.5214C156.023 37.5014 155.235 36.8343 154.181 36.8391C153.117 36.8343 152.329 37.5014 152.339 38.5214ZM153.775 44.8108C153.77 45.5939 154.742 45.9903 156.438 45.9855C158.13 45.9903 159.078 45.5939 159.078 44.8108C159.078 44.0373 158.13 43.6215 156.438 43.6215C154.742 43.6215 153.77 44.0373 153.775 44.8108ZM158.933 42.1181V34.8619H160.46V37.7769H162.186V39.0145H160.46V42.1181H158.933ZM167.731 41.1561V42.5919H163.278V41.1561H167.731ZM171.1 35.5628V37.3177H173.86V35.5628H175.364V37.8591H177.849V34.8619H179.367V42.0166H177.849V39.1064H175.364V41.4365H169.572V35.5628H171.1ZM171.1 40.2182H173.86V38.5117H171.1V40.2182ZM171.143 47.0635V42.5483H179.367V47.0635H171.143ZM172.661 45.8356H177.878V43.7617H172.661V45.8356ZM191.771 34.8619V47.2086H190.335V34.8619H191.771ZM180.985 43.5297C183.543 42.0117 184.727 40.0829 184.954 37.5981H181.648V36.3653H186.468C186.468 36.989 186.424 37.5932 186.337 38.1782H187.778V35.1616H189.223V46.6333H187.778V42.4952H185.849V41.2624H187.778V39.4157H186.071C185.486 41.4703 184.2 43.23 181.885 44.6077L180.985 43.5297Z" fill="black"/>
<rect x="243" y="20.5" width="53" height="20" rx="10" fill="#ED3C3F"/>
<path d="M258.206 26.5442V29.9903H259.515V30.8916H258.206V35.3494H257.119V26.5442H258.206ZM251.249 32.9392C253.396 31.8619 254.557 30.3633 254.771 28.3536H251.718V27.4593H255.876C255.869 30.0525 254.795 32.3315 251.86 33.7749L251.249 32.9392ZM263.103 28.136C263.103 29.2134 263.8 30.2286 265.178 30.6499L264.663 31.5028C263.672 31.192 262.971 30.5635 262.581 29.7693C262.191 30.6948 261.449 31.4268 260.388 31.7825L259.836 30.9227C261.259 30.4634 262.004 29.317 262.011 28.143V28.0325H260.14V27.1554H264.933V28.0325H263.103V28.136ZM261.041 33.6713C261.038 32.6146 262.181 32 264.028 32C265.858 32 266.98 32.6146 266.98 33.6713C266.98 34.7348 265.858 35.3598 264.028 35.3564C262.181 35.3598 261.038 34.7348 261.041 33.6713ZM262.125 33.6713C262.122 34.2169 262.816 34.5069 264.028 34.5035C265.237 34.5069 265.913 34.2169 265.913 33.6713C265.913 33.136 265.237 32.8529 264.028 32.8529C262.816 32.8529 262.122 33.136 262.125 33.6713ZM265.81 31.8066V26.5442H266.901V28.6609H268.134V29.5518H266.901V31.8066H265.81ZM278.182 26.5442V29.866H279.177V30.7742H278.182V35.3633H277.108V26.5442H278.182ZM271.055 33.2949V27.3488H271.957V29.4724H272.702V27.3488H273.593V33.2949H271.055ZM271.957 32.4006H272.702V30.3322H271.957V32.4006ZM273.994 33.2949V27.3488H274.881V29.4724H275.624V27.3488H276.518V33.2949H273.994ZM274.881 32.4006H275.624V30.3322H274.881V32.4006ZM287.654 31.0297V31.893H279.584V31.0297H287.654ZM280.585 27.5732V26.7272H286.656V28.9889H281.683V29.6243H286.828V30.4565H280.606V28.2017H285.571V27.5732H280.585ZM280.641 35.2597V32.5249H286.68V35.2597H280.641ZM281.704 34.3826H285.606V33.3881H281.704V34.3826Z" fill="white"/>
<mask id="path-9-inside-1_15_796" fill="white">
<path d="M0 61H312V131C312 135.418 308.418 139 304 139H8C3.58172 139 0 135.418 0 131V61Z"/>
</mask>
<path d="M0 61H312H0ZM313 131C313 135.971 308.971 140 304 140H8C3.02944 140 -1 135.971 -1 131H1C1 134.866 4.13401 138 8 138H304C307.866 138 311 134.866 311 131H313ZM8 140C3.02944 140 -1 135.971 -1 131V61H1V131C1 134.866 4.13401 138 8 138V140ZM313 61V131C313 135.971 308.971 140 304 140V138C307.866 138 311 134.866 311 131V61H313Z" fill="#DEDEDE" mask="url(#path-9-inside-1_15_796)"/>
<path d="M24.3218 79.8598V80.6575H20.8481V81.3032H23.3343V83.375H18.3135V83.9827H23.576V84.7907H17.25V82.636H22.2638V82.087H17.2396V81.3032H19.7707V80.6575H16.3108V79.8598H24.3218ZM16.6595 78.7583C18.4033 78.672 19.4323 78.1989 19.6568 77.5739H17.0843V76.7624H19.7673V76.0235H20.8446V76.7624H23.5449V77.5739H20.9551C21.1727 78.1989 22.2017 78.672 23.9627 78.7583L23.6416 79.5663C22.0497 79.4696 20.8619 79.038 20.3059 78.3232C19.7535 79.038 18.5656 79.4696 16.9634 79.5663L16.6595 78.7583ZM26.3104 76.4309V77.5532H28.3684V76.4309H29.4527V80.2776H25.2365V76.4309H26.3104ZM26.1239 81.759V80.913H31.9009V83.2231H27.2082V83.9275H32.1771V84.7907H26.1377V82.4358H30.8166V81.759H26.1239ZM26.3104 79.4178H28.3684V78.3785H26.3104V79.4178ZM30.8097 80.5573V76.0442H31.9009V77.826H33.1336V78.7099H31.9009V80.5573H30.8097ZM40.5434 76.0235V78.0124H41.7831V78.8895H40.5434V80.837H39.4523V76.0235H40.5434ZM33.5856 77.5843V76.7486H35.6678V75.9751H36.7486V76.7486H38.8238V77.5843H33.5856ZM34.0414 79.3039C34.0379 78.4233 34.8977 77.8639 36.2099 77.8605C37.5117 77.8639 38.3577 78.4233 38.3611 79.3039C38.3577 80.2051 37.5117 80.7472 36.2099 80.7472C34.8977 80.7472 34.0379 80.2051 34.0414 79.3039ZM34.7665 82.0145V81.2238H40.5434V83.3612H35.8508V83.9827H40.8197V84.7907H34.7803V82.605H39.4592V82.0145H34.7665ZM35.0945 79.3039C35.0876 79.7355 35.5193 79.9634 36.2099 79.9634C36.8901 79.9634 37.3252 79.7355 37.3321 79.3039C37.3252 78.8826 36.8901 78.634 36.2099 78.634C35.5193 78.634 35.0876 78.8826 35.0945 79.3039ZM49.1903 76.7762C49.1903 77.8847 50.4368 79.0104 52.3153 79.2521L51.8871 80.1291C50.3885 79.9081 49.1972 79.1727 48.624 78.1747C48.0439 79.1727 46.856 79.9081 45.3712 80.1291L44.9396 79.2521C46.8077 79.0104 48.0508 77.8916 48.0508 76.7762V76.3239H49.1903V76.7762ZM44.5943 81.7901V80.8957H52.6364V81.7901H49.1316V84.8633H48.0577V81.7901H44.5943ZM58.7453 81.7866C58.7453 82.5221 59.0802 83.2852 59.8399 83.7686C60.6065 83.2541 60.9656 82.453 60.9656 81.7866V81.424H62.036V81.7866C62.0291 82.7051 62.5747 83.5753 63.7384 83.9448L63.2066 84.7355C62.3502 84.4454 61.777 83.8826 61.4697 83.1782C61.1866 83.8757 60.6686 84.4938 59.8675 84.8149C59.0284 84.5041 58.5036 83.9102 58.2239 83.2093C57.9062 83.886 57.3433 84.442 56.5215 84.7355L55.9863 83.9448C57.1327 83.5407 57.6817 82.643 57.6886 81.7866V81.424H58.7453V81.7866ZM55.7688 78.6236C55.7653 77.3805 56.7839 76.5207 58.1479 76.5207C59.5084 76.5207 60.5236 77.3805 60.5236 78.6236C60.5236 79.846 59.5084 80.7127 58.1479 80.7093C56.7839 80.7127 55.7653 79.846 55.7688 78.6236ZM56.8288 78.6236C56.8254 79.3419 57.3779 79.808 58.1479 79.808C58.9041 79.808 59.4566 79.3419 59.4566 78.6236C59.4566 77.895 58.9041 77.4323 58.1479 77.4358C57.3779 77.4323 56.8254 77.895 56.8288 78.6236ZM61.8703 81.0511V76.0511H62.958V81.0511H61.8703ZM66.6627 76.683C67.8575 76.6865 68.7414 77.6809 68.8968 79.2901H70.575V76.0442H71.6524V84.884H70.575V80.1671H68.9072C68.7932 81.8729 67.892 82.9296 66.6627 82.9261C65.3367 82.9296 64.3941 81.721 64.401 79.8011C64.3941 77.895 65.3367 76.6865 66.6627 76.683ZM65.4403 79.8011C65.4369 81.1581 65.9376 81.9454 66.6627 81.9454C67.3948 81.9454 67.8885 81.1581 67.892 79.8011C67.8885 78.4544 67.3948 77.6637 66.6627 77.6637C65.9376 77.6637 65.4369 78.4544 65.4403 79.8011ZM80.9648 82.9054V83.7963H72.8951V82.9054H74.7597V80.6713C74.0553 80.2673 73.6306 79.6354 73.634 78.8515C73.6306 77.4461 75.0083 76.5173 76.911 76.5138C78.8136 76.5173 80.2017 77.4461 80.2017 78.8515C80.2017 79.6215 79.7873 80.2431 79.1036 80.6506V82.9054H80.9648ZM74.6976 78.8515C74.6976 79.7562 75.5884 80.3329 76.911 80.3329C78.2231 80.3329 79.1347 79.7562 79.1347 78.8515C79.1347 77.933 78.2231 77.3771 76.911 77.3805C75.5884 77.3771 74.6976 77.933 74.6976 78.8515ZM75.8336 82.9054H78.0056V81.0684C77.6672 81.1409 77.3011 81.1789 76.911 81.1789C76.5277 81.1789 76.1686 81.1409 75.8336 81.0684V82.9054ZM83.3574 76.9282L83.2469 81.9247H82.1419L82.028 76.9282H83.3574ZM81.9382 83.3198C81.9313 82.9054 82.2766 82.5704 82.6944 82.5704C83.1019 82.5704 83.4472 82.9054 83.4506 83.3198C83.4472 83.7376 83.1019 84.076 82.6944 84.076C82.2766 84.076 81.9313 83.7376 81.9382 83.3198Z" fill="black"/>
<path d="M256.324 75.5156V84H254.555V77.1914H254.508L252.562 78.4102V76.8516L254.66 75.5156H256.324ZM258.293 84L258.281 82.7227L261.328 79.9219C262.125 79.1602 262.547 78.6914 262.547 78.0234C262.547 77.2734 261.973 76.8047 261.199 76.8047C260.402 76.8047 259.887 77.3086 259.887 78.1172H258.211C258.199 76.4531 259.43 75.3984 261.223 75.3984C263.039 75.3984 264.246 76.4297 264.246 77.9062C264.246 78.8672 263.777 79.6641 262.031 81.2461L260.742 82.5V82.5469H264.363V84H258.293ZM269.297 75.1172L266.555 85.2773H265.066L267.797 75.1172H269.297ZM269.93 82.5V81.1055L273.516 75.5156H275.73V81.082H276.809V82.5H275.73V84H274.055V82.5H269.93ZM271.711 81.082H274.078V77.4492H273.996L271.711 81.0117V81.082ZM281.074 84.1172C279.305 84.1172 278.016 83.0742 277.98 81.6094H279.691C279.727 82.2773 280.336 82.7227 281.074 82.7227C281.953 82.7227 282.574 82.1016 282.574 81.2227C282.574 80.3203 281.941 79.6992 281.051 79.6875C280.418 79.6875 279.973 79.9219 279.715 80.4023H278.121L278.578 75.5156H283.805V76.957H280.031L279.797 79.1016H279.867C280.184 78.6797 280.816 78.3867 281.566 78.3867C283.125 78.3867 284.285 79.5469 284.285 81.1758C284.285 82.8867 282.984 84.1172 281.074 84.1172ZM294.059 74.4258V82.0898H292.559V74.4258H294.059ZM294.34 83.6953V84.8906H286.91V81.3164H288.422V83.6953H294.34ZM288.211 75.1055C289.852 75.1055 291.129 76.2305 291.129 77.7891C291.129 79.3828 289.852 80.4961 288.211 80.4961C286.57 80.4961 285.293 79.3828 285.293 77.7891C285.293 76.2305 286.57 75.1055 288.211 75.1055ZM288.211 76.4062C287.379 76.3945 286.746 76.9219 286.758 77.7891C286.746 78.6797 287.379 79.1953 288.211 79.1953C289.02 79.1953 289.652 78.6797 289.652 77.7891C289.652 76.9219 289.02 76.3945 288.211 76.4062Z" fill="black"/>
<rect x="16" y="103" width="280" height="6" rx="3" fill="#E6E6E6"/>
<rect x="16" y="103" width="126" height="6" rx="3" fill="#3C5AED"/>
<path d="M100.014 122.417V123.558C100.627 123.522 101.246 123.467 101.829 123.378L101.895 124.022C100.315 124.315 98.6215 124.331 97.3729 124.331L97.268 123.622C97.8177 123.622 98.4669 123.619 99.1492 123.597V122.417H100.014ZM97.4337 121.983C98.4945 121.693 99.0801 120.994 99.1298 120.202H97.6409V119.5H99.1492V118.693H100.014V119.5H101.539V120.202H100.025C100.077 120.959 100.674 121.635 101.735 121.906L101.337 122.583C100.503 122.356 99.9033 121.87 99.5829 121.243C99.2735 121.903 98.6851 122.414 97.8425 122.644L97.4337 121.983ZM102.249 125.707V118.635H103.116V125.707H102.249ZM110.605 124.119V124.82H104.149V124.119H106.911V122.481H107.773V124.119H110.605ZM104.334 121.936C105.815 121.699 106.87 120.641 106.875 119.58V119.064H107.798V119.58C107.795 120.644 108.864 121.699 110.353 121.936L109.978 122.66C108.784 122.431 107.806 121.746 107.337 120.823C106.873 121.74 105.9 122.436 104.71 122.66L104.334 121.936ZM119.384 121.688V122.326H116.605V122.843H118.594V124.5H114.577V124.986H118.787V125.633H113.727V123.909H117.738V123.47H113.718V122.843H115.743V122.326H112.975V121.688H119.384ZM113.254 120.807C114.649 120.738 115.472 120.359 115.652 119.859H113.594V119.21H115.74V118.619H116.602V119.21H118.762V119.859H116.691C116.865 120.359 117.688 120.738 119.097 120.807L118.84 121.453C117.566 121.376 116.616 121.03 116.171 120.459C115.729 121.03 114.779 121.376 113.497 121.453L113.254 120.807ZM120.975 118.945V119.843H122.621V118.945H123.489V122.022H120.116V118.945H120.975ZM120.826 123.207V122.53H125.447V124.378H121.693V124.942H125.668V125.633H120.837V123.749H124.58V123.207H120.826ZM120.975 121.334H122.621V120.503H120.975V121.334ZM124.574 122.246V118.635H125.447V120.061H126.433V120.768H125.447V122.246H124.574ZM134.583 118.635V125.691H133.707V118.635H134.583ZM128.735 123.749C130.583 122.87 131.439 121.68 131.594 120.072H129.094V119.384H132.478C132.475 121.486 131.66 123.271 129.191 124.445L128.735 123.749ZM141.458 118.956V119.646H139.409C139.489 120.315 140.351 120.948 141.715 121.11L141.392 121.796C140.124 121.641 139.19 121.086 138.812 120.326C138.433 121.083 137.508 121.641 136.243 121.796L135.925 121.11C137.287 120.948 138.141 120.312 138.224 119.646H136.19V118.956H141.458ZM135.594 122.89V122.188H142.05V122.89H139.323V124.18H138.464V122.89H135.594ZM136.375 125.558V123.528H137.243V124.854H141.337V125.558H136.375Z" fill="#3C5AED"/>
<path d="M212.609 122.891V123.406H209.742V125.648H209.141V123.406H206.281V122.891H212.609ZM209.75 120.062C209.75 120.93 210.961 121.688 212.203 121.859L211.977 122.352C210.902 122.188 209.891 121.648 209.453 120.891C209.008 121.656 207.98 122.188 206.906 122.352L206.68 121.859C207.914 121.688 209.141 120.938 209.141 120.062V120.055H206.898V119.555H209.141V118.688H209.742V119.555H212V120.055H209.75V120.062ZM218.57 118.688V121.516H219.695V122.031H218.57V125.633H217.961V118.688H218.57ZM216.773 119.438C216.773 121.406 215.852 123.195 213.586 124.312L213.242 123.828C215.039 122.934 216.016 121.598 216.156 119.953H213.562V119.438H216.773ZM228.477 124.227V124.742H222.117V124.227H223.695V122.352C223.102 122.043 222.742 121.543 222.742 120.914C222.742 119.836 223.797 119.133 225.281 119.125C226.766 119.133 227.82 119.836 227.82 120.914C227.82 121.531 227.473 122.027 226.898 122.336V124.227H228.477ZM225.281 119.633C224.141 119.625 223.336 120.141 223.336 120.914C223.336 121.688 224.141 122.211 225.281 122.211C226.414 122.211 227.227 121.688 227.227 120.914C227.227 120.141 226.414 119.625 225.281 119.633ZM224.297 124.227H226.281V122.57C225.98 122.652 225.645 122.695 225.281 122.695C224.926 122.695 224.594 122.656 224.297 122.578V124.227ZM234.555 119.062V119.578C234.555 120.117 234.555 120.75 234.375 121.617H235.391V122.125H229.031V121.617H233.758C233.945 120.746 233.945 120.117 233.945 119.578V119.57H229.836V119.062H234.555ZM234.586 123.086V125.539H229.812V123.086H234.586ZM230.422 123.57V125.039H233.977V123.57H230.422ZM239.336 122.766V123.633H240.602V122.766H241.172V125.539H238.758V122.766H239.336ZM239.336 125.055H240.602V124.102H239.336V125.055ZM243.156 123.312C243.148 124.047 243.586 124.812 244.438 125.125L244.117 125.594C243.477 125.336 243.055 124.848 242.844 124.266C242.621 124.836 242.199 125.328 241.586 125.594L241.266 125.125C242.102 124.781 242.547 124.016 242.547 123.312V122.719H243.156V123.312ZM239.867 119C240.797 119 241.508 119.527 241.641 120.328H243.094V118.688H243.711V122.367H243.094V120.836H241.648C241.523 121.656 240.809 122.195 239.867 122.195C238.812 122.195 238.062 121.547 238.062 120.594C238.062 119.648 238.812 119 239.867 119ZM239.867 119.516C239.156 119.516 238.648 119.961 238.648 120.594C238.648 121.234 239.156 121.688 239.867 121.688C240.57 121.688 241.07 121.234 241.07 120.594C241.07 119.961 240.57 119.516 239.867 119.516ZM248.031 118.844C249.539 118.844 250.484 119.328 250.484 120.164C250.484 120.984 249.539 121.461 248.031 121.461C246.523 121.461 245.57 120.984 245.57 120.164C245.57 119.328 246.523 118.844 248.031 118.844ZM248.031 119.336C246.906 119.336 246.195 119.648 246.203 120.164C246.195 120.672 246.906 120.969 248.031 120.977C249.141 120.969 249.859 120.672 249.859 120.164C249.859 119.648 249.141 119.336 248.031 119.336ZM250.422 123.258V125.539H245.641V123.258H250.422ZM246.25 123.75V125.039H249.82V123.75H246.25ZM251.195 122.062V122.57H244.867V122.062H251.195Z" fill="black"/>
</svg>
