<svg width="312" height="165" viewBox="0 0 312 165" fill="none" xmlns="http://www.w3.org/2000/svg">
<path d="M0.5 8C0.5 3.85787 3.85786 0.5 8 0.5H304C308.142 0.5 311.5 3.85786 311.5 8V60.5H0.5V8Z" stroke="#DEDEDE"/>
<rect x="16" y="14.5" width="32" height="32" rx="6" fill="#F2F2F2"/>
<path d="M26 40C25.7167 40 25.4792 39.9042 25.2875 39.7125C25.0958 39.5208 25 39.2833 25 39V36.95C24.7 36.6167 24.4583 36.2458 24.275 35.8375C24.0917 35.4292 24 34.9833 24 34.5V25C24 23.6167 24.6417 22.6042 25.925 21.9625C27.2083 21.3208 29.2333 21 32 21C34.8667 21 36.9167 21.3083 38.15 21.925C39.3833 22.5417 40 23.5667 40 25V34.5C40 34.9833 39.9083 35.4292 39.725 35.8375C39.5417 36.2458 39.3 36.6167 39 36.95V39C39 39.2833 38.9042 39.5208 38.7125 39.7125C38.5208 39.9042 38.2833 40 38 40H37C36.7167 40 36.4792 39.9042 36.2875 39.7125C36.0958 39.5208 36 39.2833 36 39V38H28V39C28 39.2833 27.9042 39.5208 27.7125 39.7125C27.5208 39.9042 27.2833 40 27 40H26ZM26 29H38V26H26V29ZM28.5 35C28.9167 35 29.2708 34.8542 29.5625 34.5625C29.8542 34.2708 30 33.9167 30 33.5C30 33.0833 29.8542 32.7292 29.5625 32.4375C29.2708 32.1458 28.9167 32 28.5 32C28.0833 32 27.7292 32.1458 27.4375 32.4375C27.1458 32.7292 27 33.0833 27 33.5C27 33.9167 27.1458 34.2708 27.4375 34.5625C27.7292 34.8542 28.0833 35 28.5 35ZM35.5 35C35.9167 35 36.2708 34.8542 36.5625 34.5625C36.8542 34.2708 37 33.9167 37 33.5C37 33.0833 36.8542 32.7292 36.5625 32.4375C36.2708 32.1458 35.9167 32 35.5 32C35.0833 32 34.7292 32.1458 34.4375 32.4375C34.1458 32.7292 34 33.0833 34 33.5C34 33.9167 34.1458 34.2708 34.4375 34.5625C34.7292 34.8542 35.0833 35 35.5 35ZM26.45 24H37.65C37.4 23.7167 36.8625 23.4792 36.0375 23.2875C35.2125 23.0958 33.8833 23 32.05 23C30.2667 23 28.9625 23.1042 28.1375 23.3125C27.3125 23.5208 26.75 23.75 26.45 24ZM28 36H36C36.55 36 37.0208 35.8042 37.4125 35.4125C37.8042 35.0208 38 34.55 38 34V31H26V34C26 34.55 26.1958 35.0208 26.5875 35.4125C26.9792 35.8042 27.45 36 28 36Z" fill="#191919"/>
<path d="M64.6738 22V16.6973H65.4844V17.5273H65.5527C65.7773 16.9609 66.2852 16.6289 66.9785 16.6289C67.6719 16.6289 68.1406 16.9609 68.3945 17.5273H68.4531C68.7266 16.9805 69.2832 16.6289 70.0449 16.6289C70.9922 16.6289 71.666 17.2051 71.666 18.4551V22H70.8262V18.4648C70.8262 17.6836 70.3281 17.3809 69.752 17.3809C69.0098 17.3809 68.5898 17.8789 68.5898 18.5527V22H67.7402V18.377C67.7402 17.7812 67.3105 17.3809 66.7051 17.3809C66.0703 17.3809 65.5137 17.918 65.5137 18.6895V22H64.6738ZM75.1816 22.1074C73.7363 22.1074 72.7598 21.0234 72.7598 19.373C72.7598 17.7227 73.7363 16.6289 75.1816 16.6289C76.6172 16.6289 77.584 17.7227 77.584 19.373C77.584 21.0234 76.6172 22.1074 75.1816 22.1074ZM75.1816 21.3652C76.2461 21.3652 76.7441 20.4277 76.7441 19.373C76.7441 18.3184 76.2461 17.3711 75.1816 17.3711C74.0977 17.3711 73.5996 18.3184 73.5996 19.373C73.5996 20.4277 74.0977 21.3652 75.1816 21.3652ZM82.8574 16.6973L80.8945 22H80.0254L78.0723 16.6973H78.9902L80.4355 20.9062H80.4941L81.9395 16.6973H82.8574ZM85.8164 22.1074C84.2832 22.1074 83.3359 21.0234 83.3359 19.3926C83.3359 17.7617 84.293 16.6289 85.7383 16.6289C86.8516 16.6289 88.0234 17.3125 88.0234 19.2754V19.627H84.1758C84.2148 20.75 84.8691 21.3652 85.8164 21.3652C86.4512 21.3652 86.8516 21.0918 87.0469 20.7598H87.9453C87.6914 21.5605 86.9102 22.1074 85.8164 22.1074ZM84.1855 18.9141H87.1738C87.1738 18.0254 86.6074 17.3711 85.7383 17.3711C84.8203 17.3711 84.2344 18.0938 84.1855 18.9141ZM89.7129 22.0586C89.3711 22.0586 89.0781 21.7754 89.0879 21.4238C89.0781 21.082 89.3711 20.7988 89.7129 20.7988C90.0547 20.7988 90.3379 21.082 90.3379 21.4238C90.3379 21.7754 90.0547 22.0586 89.7129 22.0586ZM92.291 16.6973L93.541 18.8555L94.8008 16.6973H95.7676L94.0586 19.3438L95.7676 22H94.8105L93.541 19.9492L92.291 22H91.3242L92.9941 19.3438L91.3242 16.6973H92.291ZM97.623 14.9297V22H96.7832V14.9297H97.623ZM98.707 20.4961C98.707 19.2754 99.7812 19.002 100.699 18.9336C101.036 18.9092 101.896 18.8652 102.135 18.8555V18.4258C102.135 17.752 101.734 17.3613 100.934 17.3613C100.26 17.3613 99.8594 17.6738 99.7422 18.0742H98.8633C98.9707 17.2246 99.8008 16.6289 100.973 16.6289C101.666 16.6289 102.965 16.834 102.965 18.5039V22H102.135V21.2773H102.096C101.92 21.6387 101.432 22.127 100.514 22.127C99.5078 22.127 98.707 21.5312 98.707 20.4961ZM99.5469 20.5352C99.5469 21.0918 100.016 21.375 100.66 21.375C101.607 21.375 102.135 20.7402 102.135 20.0762V19.5391L100.797 19.6367C100.035 19.6855 99.5469 19.959 99.5469 20.5352ZM104.312 22V16.6973H105.123V17.5078H105.182C105.377 16.9707 105.924 16.6094 106.549 16.6094C106.676 16.6094 106.891 16.6191 106.988 16.6289V17.4785C106.93 17.459 106.695 17.4199 106.48 17.4199C105.719 17.4199 105.152 17.9473 105.152 18.6602V22H104.312ZM109.781 24.0996C108.502 24.0996 107.633 23.543 107.535 22.5566H108.414C108.531 23.0938 109.029 23.3672 109.781 23.3672C110.689 23.3672 111.246 22.9766 111.246 22.0977V21.0234H111.178C111.002 21.3164 110.66 21.9219 109.635 21.9219C108.346 21.9219 107.379 20.9453 107.379 19.2754C107.379 17.6445 108.316 16.6289 109.645 16.6289C110.67 16.6289 111.002 17.2539 111.197 17.5371H111.266V16.6973H112.086V22.1465C112.086 23.5137 111.07 24.0996 109.781 24.0996ZM109.752 21.1699C110.719 21.1699 111.266 20.4766 111.266 19.3047C111.266 18.1719 110.738 17.3809 109.752 17.3809C108.736 17.3809 108.229 18.2402 108.229 19.3047C108.229 20.4082 108.746 21.1699 109.752 21.1699ZM115.65 22.1074C114.117 22.1074 113.17 21.0234 113.17 19.3926C113.17 17.7617 114.127 16.6289 115.572 16.6289C116.686 16.6289 117.857 17.3125 117.857 19.2754V19.627H114.01C114.049 20.75 114.703 21.3652 115.65 21.3652C116.285 21.3652 116.686 21.0918 116.881 20.7598H117.779C117.525 21.5605 116.744 22.1074 115.65 22.1074ZM114.02 18.9141H117.008C117.008 18.0254 116.441 17.3711 115.572 17.3711C114.654 17.3711 114.068 18.0938 114.02 18.9141Z" fill="black"/>
<path d="M71.3191 35.5725V36.3267C71.3094 37.1243 71.3094 38.2265 71.0097 39.6091L69.5207 39.4883C69.7479 38.3764 69.7914 37.5159 69.8011 36.8052H65.0152V35.5725H71.3191ZM64.2804 40.5953C65.0152 40.5953 65.8322 40.5905 66.6878 40.576V38.3039H68.1961V40.5373C69.4772 40.489 70.7873 40.4068 71.991 40.2569L72.0732 41.3253C69.5014 41.7652 66.6395 41.8329 64.4157 41.8329L64.2804 40.5953ZM65.8854 44.8688C65.8854 43.462 67.5097 42.6015 70.125 42.6015C72.7403 42.6015 74.3598 43.462 74.3598 44.8688C74.3598 46.3336 72.7403 47.1796 70.125 47.1796C67.5097 47.1796 65.8854 46.3336 65.8854 44.8688ZM67.4372 44.8688C67.4275 45.6229 68.4233 45.9903 70.125 45.9855C71.8218 45.9903 72.7983 45.6229 72.8032 44.8688C72.7983 44.1727 71.8218 43.7762 70.125 43.7762C68.4233 43.7762 67.4275 44.1727 67.4372 44.8688ZM72.7162 42.4517V34.8619H74.2631V38.0186H75.8729V39.2852H74.2631V42.4517H72.7162ZM86.648 35.9883V37.25C86.6383 38.7825 86.6383 40.4454 86.1935 42.8722L84.6997 42.7224C85.1252 40.4309 85.1252 38.7438 85.1252 37.25V37.2113H77.6466V35.9883H86.648ZM76.5105 45.6229V44.3757H79.034V40.4309H80.552V44.3757H82.1231V40.4309H83.6169V44.3757H87.7695V45.6229H76.5105ZM99.8691 40.5276V41.7555H94.9865V42.8046C97.1909 42.9448 98.501 43.7086 98.5058 44.9945C98.501 46.4109 96.8864 47.2037 94.2227 47.1989C91.53 47.2037 89.9202 46.4109 89.9202 44.9945C89.9202 43.7037 91.2351 42.9351 93.4782 42.7997V41.7555H88.6101V40.5276H99.8691ZM89.1516 38.768C91.4237 38.5552 92.9126 37.6319 93.1688 36.6167H89.6398V35.4033H98.8587V36.6167H95.3007C95.5473 37.6367 97.0169 38.5552 99.3422 38.768L98.8056 39.9669C96.5625 39.7396 94.8995 38.8501 94.2275 37.5932C93.5604 38.8453 91.9168 39.7396 89.6688 39.9669L89.1516 38.768ZM91.4672 44.9945C91.4575 45.6713 92.4292 46.0483 94.2227 46.0387C95.9969 46.0483 96.9782 45.6713 96.9879 44.9945C96.9782 44.3032 95.9969 43.9454 94.2227 43.9358C92.4292 43.9454 91.4575 44.3032 91.4672 44.9945ZM104.181 35.5628C106.085 35.558 107.502 36.7762 107.512 38.5214C107.502 40.2569 106.085 41.48 104.181 41.4848C102.271 41.48 100.835 40.2569 100.845 38.5214C100.835 36.7762 102.271 35.558 104.181 35.5628ZM102.257 44.8108C102.252 43.3025 103.876 42.4081 106.438 42.4081C108.971 42.4081 110.572 43.3025 110.572 44.8108C110.572 46.3094 108.971 47.2037 106.438 47.1989C103.876 47.2037 102.252 46.3094 102.257 44.8108ZM102.339 38.5214C102.329 39.5511 103.117 40.1941 104.181 40.1989C105.235 40.1941 106.023 39.5511 106.027 38.5214C106.023 37.5014 105.235 36.8343 104.181 36.8391C103.117 36.8343 102.329 37.5014 102.339 38.5214ZM103.775 44.8108C103.77 45.5939 104.742 45.9903 106.438 45.9855C108.13 45.9903 109.078 45.5939 109.078 44.8108C109.078 44.0373 108.13 43.6215 106.438 43.6215C104.742 43.6215 103.77 44.0373 103.775 44.8108ZM108.933 42.1181V34.8619H110.46V37.7769H112.186V39.0145H110.46V42.1181H108.933ZM117.731 41.1561V42.5919H113.278V41.1561H117.731ZM121.1 35.5628V37.3177H123.86V35.5628H125.364V37.8591H127.849V34.8619H129.367V42.0166H127.849V39.1064H125.364V41.4365H119.572V35.5628H121.1ZM121.1 40.2182H123.86V38.5117H121.1V40.2182ZM121.143 47.0635V42.5483H129.367V47.0635H121.143ZM122.661 45.8356H127.878V43.7617H122.661V45.8356ZM141.771 34.8619V47.2086H140.335V34.8619H141.771ZM130.985 43.5297C133.543 42.0117 134.727 40.0829 134.954 37.5981H131.648V36.3653H136.468C136.468 36.989 136.424 37.5932 136.337 38.1782H137.778V35.1616H139.223V46.6333H137.778V42.4952H135.849V41.2624H137.778V39.4157H136.071C135.486 41.4703 134.2 43.23 131.885 44.6077L130.985 43.5297Z" fill="black"/>
<mask id="path-6-inside-1_15_903" fill="white">
<path d="M0 61H312V157C312 161.418 308.418 165 304 165H8C3.58172 165 0 161.418 0 157V61Z"/>
</mask>
<path d="M0 61H312H0ZM313 157C313 161.971 308.971 166 304 166H8C3.02944 166 -1 161.971 -1 157H1C1 160.866 4.13401 164 8 164H304C307.866 164 311 160.866 311 157H313ZM8 166C3.02944 166 -1 161.971 -1 157V61H1V157C1 160.866 4.13401 164 8 164V166ZM313 61V157C313 161.971 308.971 166 304 166V164C307.866 164 311 160.866 311 157V61H313Z" fill="#DEDEDE" mask="url(#path-6-inside-1_15_903)"/>
<path d="M20.7559 75.5977V76.2227H17.5234V77.2773H20.5898V77.9023H17.5234V79.0156C19.2129 79.0156 20.1846 78.9717 21.3223 78.7617L21.4102 79.3867C20.209 79.5918 19.2129 79.6406 17.416 79.6406H16.7617V75.5977H20.7559ZM23.1387 75.1094V77.1504H24.4473V77.8047H23.1387V79.9238H22.377V75.1094H23.1387ZM18.4023 80.3145V81.3496H22.377V80.3145H23.1387V83.6738H17.6406V80.3145H18.4023ZM18.4023 83.0488H22.377V81.9551H18.4023V83.0488ZM29.3496 75.6562C29.3496 76.7598 30.9316 77.7559 32.4355 77.9512L32.1523 78.5566C30.8242 78.3564 29.5107 77.6533 28.959 76.6621C28.4072 77.6631 27.0889 78.3564 25.7559 78.5566L25.4531 77.9512C26.9863 77.7559 28.5586 76.7891 28.5586 75.6562V75.2559H29.3496V75.6562ZM32.9043 79.2598V79.8848H24.9941V79.2598H32.9043ZM28.9492 80.7051C30.8145 80.7051 31.9277 81.2422 31.9375 82.2383C31.9277 83.2246 30.8145 83.7812 28.9492 83.791C27.0645 83.7812 25.9512 83.2246 25.9512 82.2383C25.9512 81.2422 27.0645 80.7051 28.9492 80.7051ZM28.9492 81.291C27.5527 81.3008 26.7227 81.6426 26.7324 82.2383C26.7227 82.8438 27.5527 83.1758 28.9492 83.1758C30.3262 83.1758 31.166 82.8438 31.166 82.2383C31.166 81.6426 30.3262 81.3008 28.9492 81.291ZM36.0977 75.4316C37.3965 75.4414 38.3438 76.2227 38.3438 77.3555C38.3438 78.4883 37.3965 79.2695 36.0977 79.2695C34.7793 79.2695 33.8418 78.4883 33.8418 77.3555C33.8418 76.2227 34.7793 75.4414 36.0977 75.4316ZM36.0977 76.0762C35.2285 76.0762 34.584 76.6035 34.5938 77.3555C34.584 78.1172 35.2285 78.6445 36.0977 78.6445C36.957 78.6445 37.6016 78.1172 37.6016 77.3555C37.6016 76.6035 36.957 76.0762 36.0977 76.0762ZM40.8047 75.1094V79.5723H40.043V75.1094H40.8047ZM40.8047 79.9922V82.082H35.9316V83.0586H41.1172V83.6738H35.1797V81.5059H40.043V80.6074H35.1602V79.9922H40.8047Z" fill="black"/>
<path d="M16.5905 103L16.587 102.078L19.0836 99.6713C19.7983 98.9565 20.1713 98.5352 20.1747 97.9448C20.1713 97.2818 19.6499 96.8674 18.9558 96.8674C18.2307 96.8674 17.761 97.3232 17.7645 98.0414H16.5559C16.549 96.7017 17.5539 95.8315 18.9731 95.8315C20.413 95.8315 21.3867 96.6948 21.3902 97.8791C21.3867 98.6802 21.0035 99.326 19.6119 100.638L18.3584 101.885V101.936H21.4972V103H16.5905ZM25.2195 103.135C23.5137 103.131 22.4985 101.788 22.5019 99.471C22.5019 97.1609 23.524 95.8315 25.2195 95.8315C26.9114 95.8315 27.937 97.1644 27.937 99.471C27.9335 101.795 26.9218 103.135 25.2195 103.135ZM23.783 99.471C23.783 101.17 24.332 102.057 25.2195 102.057C26.1034 102.057 26.6525 101.17 26.6525 99.471C26.649 97.7825 26.1 96.8916 25.2195 96.8916C24.3355 96.8916 23.7864 97.7825 23.783 99.471ZM29.0026 103L28.9991 102.078L31.4957 99.6713C32.2105 98.9565 32.5834 98.5352 32.5868 97.9448C32.5834 97.2818 32.062 96.8674 31.3679 96.8674C30.6428 96.8674 30.1732 97.3232 30.1766 98.0414H28.968C28.9611 96.7017 29.966 95.8315 31.3852 95.8315C32.8251 95.8315 33.7988 96.6948 33.8023 97.8791C33.7988 98.6802 33.4156 99.326 32.024 100.638L30.7705 101.885V101.936H33.9093V103H29.0026ZM34.7371 101.684V100.669L37.793 95.9282H39.3814V100.638H40.3103V101.684H39.3814V103H38.1694V101.684H34.7371ZM36.0423 100.638H38.1832V97.3715H38.1107L36.0423 100.583V100.638ZM41.8952 103.076C41.4774 103.076 41.1321 102.738 41.139 102.32C41.1321 101.905 41.4774 101.57 41.8952 101.57C42.3027 101.57 42.648 101.905 42.6514 102.32C42.648 102.738 42.3027 103.076 41.8952 103.076ZM45.8432 95.9282V103H44.5656V97.1678H44.5241L42.8701 98.2244V97.0608L44.6243 95.9282H45.8432ZM50.4331 95.9282V103H49.1554V97.1678H49.114L47.46 98.2244V97.0608L49.2141 95.9282H50.4331ZM52.5397 103.076C52.1219 103.076 51.7766 102.738 51.7835 102.32C51.7766 101.905 52.1219 101.57 52.5397 101.57C52.9472 101.57 53.2925 101.905 53.2959 102.32C53.2925 102.738 52.9472 103.076 52.5397 103.076ZM56.4877 95.9282V103H55.2101V97.1678H55.1687L53.5147 98.2244V97.0608L55.2688 95.9282H56.4877ZM60.715 103.097C59.3062 103.097 58.2634 102.254 58.2254 101.08H59.4616C59.5065 101.657 60.0486 102.068 60.715 102.068C61.5092 102.068 62.0755 101.498 62.0755 100.711C62.0755 99.9061 61.492 99.3329 60.677 99.326C60.128 99.3225 59.7274 99.5159 59.503 99.9302H58.329L58.7502 95.9282H62.9284V96.9917H59.8L59.5859 98.8702H59.648C59.9243 98.5594 60.4388 98.3349 61.0223 98.3349C62.3345 98.3349 63.3082 99.3156 63.3082 100.676C63.3082 102.088 62.2447 103.097 60.715 103.097Z" fill="black"/>
<path d="M92.7559 75.5977V76.2227H89.5234V77.2773H92.5898V77.9023H89.5234V79.0156C91.2129 79.0156 92.1846 78.9717 93.3223 78.7617L93.4102 79.3867C92.209 79.5918 91.2129 79.6406 89.416 79.6406H88.7617V75.5977H92.7559ZM95.1387 75.1094V77.1504H96.4473V77.8047H95.1387V79.9238H94.377V75.1094H95.1387ZM90.4023 80.3145V81.3496H94.377V80.3145H95.1387V83.6738H89.6406V80.3145H90.4023ZM90.4023 83.0488H94.377V81.9551H90.4023V83.0488ZM101.35 75.6562C101.35 76.7598 102.932 77.7559 104.436 77.9512L104.152 78.5566C102.824 78.3564 101.511 77.6533 100.959 76.6621C100.407 77.6631 99.0889 78.3564 97.7559 78.5566L97.4531 77.9512C98.9863 77.7559 100.559 76.7891 100.559 75.6562V75.2559H101.35V75.6562ZM104.904 79.2598V79.8848H96.9941V79.2598H104.904ZM100.949 80.7051C102.814 80.7051 103.928 81.2422 103.938 82.2383C103.928 83.2246 102.814 83.7812 100.949 83.791C99.0645 83.7812 97.9512 83.2246 97.9512 82.2383C97.9512 81.2422 99.0645 80.7051 100.949 80.7051ZM100.949 81.291C99.5527 81.3008 98.7227 81.6426 98.7324 82.2383C98.7227 82.8438 99.5527 83.1758 100.949 83.1758C102.326 83.1758 103.166 82.8438 103.166 82.2383C103.166 81.6426 102.326 81.3008 100.949 81.291ZM108.723 77.4434C108.713 79.0254 109.797 80.627 111.076 81.2031L110.607 81.8086C109.621 81.3252 108.767 80.3047 108.352 79.0645C107.946 80.3779 107.092 81.4717 106.076 81.9844L105.588 81.3398C106.877 80.7441 107.951 79.0938 107.961 77.4434V75.8613H108.723V77.4434ZM112.795 75.1094V83.8105H112.023V75.1094H112.795ZM121.066 75.1094V77.7559H122.375V78.4004H121.066V81.4668H120.295V75.1094H121.066ZM118.723 75.7832C118.723 78.0195 117.121 79.6797 114.621 80.4609L114.289 79.8457C116.369 79.1963 117.727 77.9561 117.893 76.4277H114.65V75.7832H118.723ZM121.467 82.9609V83.6055H115.627V80.8223H116.389V82.9609H121.467Z" fill="black"/>
<path d="M91.1941 103.135C89.4883 103.131 88.4731 101.788 88.4765 99.471C88.4765 97.1609 89.4986 95.8315 91.1941 95.8315C92.886 95.8315 93.9116 97.1644 93.9116 99.471C93.9081 101.795 92.8964 103.135 91.1941 103.135ZM89.7576 99.471C89.7576 101.17 90.3066 102.057 91.1941 102.057C92.078 102.057 92.6271 101.17 92.6271 99.471C92.6236 97.7825 92.0746 96.8916 91.1941 96.8916C90.3101 96.8916 89.761 97.7825 89.7576 99.471ZM95.0374 103L98.1072 97.0435V96.9917H94.5505V95.9282H99.4262V97.0193L96.3599 103H95.0374ZM100.897 102.147C100.479 102.147 100.134 101.809 100.141 101.391C100.134 100.977 100.479 100.642 100.897 100.642C101.305 100.642 101.65 100.977 101.653 101.391C101.65 101.809 101.305 102.147 100.897 102.147ZM100.141 97.886C100.134 97.4717 100.479 97.1367 100.897 97.1367C101.305 97.1367 101.65 97.4717 101.653 97.886C101.65 98.3039 101.305 98.6423 100.897 98.6423C100.479 98.6423 100.134 98.3039 100.141 97.886ZM102.714 101.684V100.669L105.77 95.9282H107.358V100.638H108.287V101.684H107.358V103H106.146V101.684H102.714ZM104.019 100.638H106.16V97.3715H106.087L104.019 100.583V100.638ZM111.807 103.097C110.398 103.097 109.355 102.254 109.317 101.08H110.553C110.598 101.657 111.14 102.068 111.807 102.068C112.601 102.068 113.167 101.498 113.167 100.711C113.167 99.9061 112.584 99.3329 111.769 99.326C111.22 99.3225 110.819 99.5159 110.595 99.9302H109.421L109.842 95.9282H114.02V96.9917H110.892L110.678 98.8702H110.74C111.016 98.5594 111.531 98.3349 112.114 98.3349C113.426 98.3349 114.4 99.3156 114.4 100.676C114.4 102.088 113.337 103.097 111.807 103.097Z" fill="black"/>
<path d="M150.398 76.6719C150.389 77.7754 151.287 78.752 152.557 79.1426L152.195 79.748C151.185 79.4258 150.394 78.7617 150.018 77.8828C149.637 78.835 148.821 79.5527 147.791 79.8945L147.391 79.2891C148.699 78.8789 149.617 77.8633 149.627 76.6719V76.5645H147.654V75.9199H152.352V76.5645H150.398V76.6719ZM150.398 79.5332V81.2715C151.189 81.2422 151.995 81.1787 152.742 81.0762L152.791 81.6426C150.926 81.9746 148.875 81.9746 147.361 81.9746L147.244 81.3301C147.947 81.3301 148.768 81.3301 149.627 81.3008V79.5332H150.398ZM155.477 78.7227V79.377H154.061V83.791H153.299V75.1094H154.061V78.7227H155.477ZM158.953 76.5059C158.953 77.707 159.842 78.8105 161.102 79.2402L160.682 79.8555C159.715 79.499 158.963 78.7568 158.592 77.834C158.226 78.8594 157.444 79.6602 156.424 80.0605L156.004 79.4258C157.322 78.957 158.191 77.8145 158.201 76.4766V75.5586H158.953V76.5059ZM163.191 80.7246V83.791H162.42V81.3398H157.352V80.7246H163.191ZM163.191 75.1094V80.2461H162.42V77.5801H160.486V76.9355H162.42V75.1094H163.191ZM171.834 75.1191V81.5449H171.062V78.2051H169.012V80.0605H165.076V75.6953H165.838V77.2383H168.26V75.6953H169.012V77.5605H171.062V75.1191H171.834ZM172.029 82.9609V83.6055H166.219V80.9102H166.99V82.9609H172.029ZM165.838 79.4258H168.26V77.8438H165.838V79.4258ZM180.779 76.3984V77.0332H173.67V76.3984H176.854V75.2559H177.605V76.3984H180.779ZM181.229 82.1406V82.7754H173.279V82.1406H176.854V80.9199C175.311 80.8369 174.373 80.2363 174.383 79.2598C174.373 78.2246 175.467 77.6191 177.234 77.6289C178.982 77.6191 180.086 78.2246 180.086 79.2598C180.086 80.2363 179.139 80.8369 177.605 80.9199V82.1406H181.229ZM177.234 78.2344C175.936 78.2344 175.145 78.6152 175.154 79.2598C175.145 79.9238 175.936 80.2949 177.234 80.3047C178.514 80.2949 179.305 79.9238 179.305 79.2598C179.305 78.6152 178.514 78.2344 177.234 78.2344Z" fill="black"/>
<path d="M150.456 95.9282V103H149.179V97.1678H149.137L147.483 98.2244V97.0608L149.238 95.9282H150.456ZM154.825 103.097C153.441 103.09 152.063 102.268 152.066 99.6644C152.066 97.2403 153.168 95.8315 154.901 95.8315C156.262 95.8315 157.201 96.6878 157.36 97.8308H156.103C155.972 97.2921 155.544 96.933 154.901 96.933C153.872 96.933 153.303 97.8412 153.299 99.3329H153.372C153.727 98.7182 154.408 98.3557 155.184 98.3557C156.452 98.3557 157.432 99.3191 157.429 100.659C157.432 102.064 156.386 103.104 154.825 103.097ZM153.441 100.697C153.444 101.436 154.021 102.068 154.822 102.068C155.609 102.068 156.196 101.46 156.196 100.69C156.196 99.9337 155.626 99.3294 154.839 99.3294C154.045 99.3294 153.448 99.9579 153.441 100.697Z" fill="black"/>
<path d="M24.2617 126.977V127.572H20.6777V128.383H23.2461V130.258H18.0898V131.107H23.5098V131.693H17.3281V129.711H22.4941V128.959H17.3086V128.383H19.9258V127.572H16.3613V126.977H24.2617ZM20.6777 123.061V123.871H23.4609V124.477H20.7363C20.8779 125.341 22.2354 125.888 23.832 125.99L23.5977 126.576C22.1475 126.454 20.8389 126.005 20.3066 125.18C19.7744 126.005 18.4658 126.454 17.0059 126.576L16.7812 125.99C18.3682 125.888 19.7256 125.341 19.877 124.477H17.1719V123.871H19.9258V123.061H20.6777ZM26.1172 123.48V124.73H28.6465V123.48H29.4082V127.26H25.3652V123.48H26.1172ZM26.1172 126.635H28.6465V125.326H26.1172V126.635ZM31.7812 123.109V124.994H33.0898V125.639H31.7812V127.602H31.0195V123.109H31.7812ZM31.7812 128.012V130.111H27.0156V131.068H32.1035V131.693H26.2637V129.525H31.0195V128.627H26.2441V128.012H31.7812ZM36.7422 125.775C36.7422 127.25 37.8164 128.744 39.0957 129.301L38.666 129.906C37.6504 129.442 36.7715 128.441 36.3711 127.24C35.9609 128.515 35.0869 129.623 34.0957 130.121L33.6367 129.516C34.877 128.92 35.9609 127.279 35.9707 125.775V124.643H33.9199V124.008H38.8125V124.643H36.7422V125.775ZM40.7949 123.109V131.791H40.0234V123.109H40.7949Z" fill="black"/>
<path d="M20.3066 149.145C22.2793 149.145 23.3926 149.604 23.4023 150.521C23.3926 151.439 22.2793 151.908 20.3066 151.908C18.3145 151.908 17.1914 151.439 17.1914 150.521C17.1914 149.604 18.3145 149.145 20.3066 149.145ZM20.3066 150.023C19.0469 150.023 18.4707 150.189 18.4707 150.521C18.4707 150.863 19.0469 151.01 20.3066 151.01C21.5566 151.01 22.1328 150.863 22.1426 150.521C22.1328 150.189 21.5566 150.023 20.3066 150.023ZM23.9492 143.666V144.594H16.6543V143.666H19.6914V142.934H20.9414V143.666H23.9492ZM20.3164 144.838C22.2402 144.828 23.3047 145.277 23.3047 146.117C23.3047 146.957 22.2402 147.387 20.3164 147.387C18.4023 147.387 17.3184 146.957 17.3281 146.117C17.3184 145.277 18.4023 144.828 20.3164 144.838ZM20.3164 145.658C19.1934 145.668 18.6562 145.805 18.6562 146.117C18.6562 146.42 19.1934 146.537 20.3164 146.537C21.4492 146.537 21.9668 146.42 21.9668 146.117C21.9668 145.805 21.4492 145.668 20.3164 145.658ZM24.3691 147.777V148.725H16.2637V147.777H24.3691ZM29.4277 143.598V144.604H26.625V147.094C28.0605 147.084 28.9004 147.021 29.8184 146.83L29.9258 147.816C28.8711 148.061 27.9336 148.09 26.0879 148.09H25.3848V143.598H29.4277ZM32.3965 148.754V151.898H31.1562V149.75H26.293V148.754H32.3965ZM32.3965 143.012V148.373H31.1562V146.234H28.998V145.229H31.1562V143.012H32.3965ZM41.6543 147.045V148.051H38.2168V148.705C39.7646 148.822 40.6777 149.379 40.6875 150.297C40.6777 151.322 39.5156 151.898 37.5918 151.898C35.6387 151.898 34.4766 151.322 34.4766 150.297C34.4766 149.374 35.3994 148.817 36.9766 148.705V148.051H33.5488V147.045H41.6543ZM37.5918 149.623C36.3613 149.633 35.7363 149.848 35.7461 150.297C35.7363 150.727 36.3613 150.961 37.5918 150.961C38.793 150.961 39.4277 150.727 39.4375 150.297C39.4277 149.848 38.793 149.633 37.5918 149.623ZM40.9219 143.393V144.369H38.5098C38.7197 144.994 39.623 145.595 41.3125 145.736L40.873 146.713C39.1982 146.552 38.0654 145.917 37.5918 145.053C37.123 145.917 36.0098 146.552 34.3203 146.713L33.9102 145.736C35.5557 145.595 36.4639 144.989 36.6934 144.369H34.291V143.393H40.9219ZM49.6328 143.021V148.031H48.3828V143.021H49.6328ZM49.6328 148.441V151.801H43.6758V148.441H49.6328ZM44.9062 149.428V150.805H48.4121V149.428H44.9062ZM45.5996 144.203C45.5898 145.287 46.2441 146.312 47.6797 146.762L47.0742 147.709C46.0586 147.411 45.3555 146.796 44.9551 146C44.5498 146.864 43.8271 147.548 42.7676 147.875L42.1621 146.898C43.6465 146.449 44.3008 145.316 44.3008 144.203V143.344H45.5996V144.203ZM54.0762 144.408C54.0762 145.482 54.7012 146.518 56.1074 146.957L55.4434 147.924C54.501 147.611 53.8418 147.006 53.4609 146.225C53.0752 147.123 52.3867 147.826 51.3711 148.168L50.6973 147.191C52.1816 146.693 52.8164 145.512 52.8262 144.291V143.48H54.0762V144.408ZM57.8848 143.012V145.092H59.0859V146.127H57.8848V148.285H56.6348V143.012H57.8848ZM54.9746 148.461C56.8105 148.461 57.9727 149.096 57.9727 150.18C57.9727 151.273 56.8105 151.898 54.9746 151.898C53.0996 151.898 51.9277 151.273 51.9277 150.18C51.9277 149.096 53.0996 148.461 54.9746 148.461ZM54.9746 149.438C53.8027 149.438 53.168 149.691 53.1777 150.18C53.168 150.688 53.8027 150.922 54.9746 150.922C56.127 150.922 56.7422 150.688 56.7422 150.18C56.7422 149.691 56.127 149.438 54.9746 149.438ZM61.957 143.393C63.0947 143.383 63.998 144.032 64.2422 144.984H65.7266V143.012H66.9668V147.787H65.7266V145.98H64.252C64.0176 146.957 63.1045 147.621 61.957 147.621C60.5898 147.621 59.584 146.732 59.5938 145.492C59.584 144.271 60.5898 143.383 61.957 143.393ZM61.957 144.428C61.2637 144.418 60.7656 144.828 60.7754 145.492C60.7656 146.156 61.2637 146.576 61.957 146.576C62.6309 146.576 63.1191 146.156 63.1191 145.492C63.1191 144.828 62.6309 144.418 61.957 144.428ZM62.2695 148.178V149.037H65.7266V148.178H66.9668V151.801H61.0391V148.178H62.2695ZM62.2695 150.795H65.7266V149.994H62.2695V150.795ZM71.5664 145.434C71.5664 146.869 72.2988 148.402 73.793 149.027L73.1191 150.004C72.0693 149.56 71.3467 148.676 70.9512 147.592C70.5459 148.769 69.8086 149.745 68.7637 150.229L68.0508 149.242C69.5254 148.588 70.2871 146.938 70.2871 145.434V144.887H68.4023V143.871H73.4219V144.887H71.5664V145.434ZM75.5605 143.012V151.898H74.3008V143.012H75.5605ZM83.9199 143.529V144.33C83.9199 145.16 83.9199 146.068 83.6953 147.309H84.8672V148.314H81.4004V151.908H80.1504V148.314H76.7617V147.309H82.4355C82.6602 146.161 82.6797 145.292 82.6797 144.525H77.6895V143.529H83.9199Z" fill="black"/>
<path d="M117.363 127.182V127.807H114.678V130.053H118.301V130.697H110.352V130.053H113.926V127.807H111.367V123.822H117.275V124.447H112.139V127.182H117.363ZM121.953 125.004C121.953 126.078 122.832 127.074 124.111 127.455L123.74 128.061C122.744 127.748 121.968 127.079 121.592 126.225C121.211 127.167 120.41 127.885 119.395 128.227L119.004 127.621C120.303 127.221 121.201 126.176 121.201 125.004V124.809H119.238V124.193H121.201V123.08H121.973V124.193H123.916V124.809H121.953V125.004ZM125.781 123.109V125.434H127.09V126.088H125.781V128.412H125.02V123.109H125.781ZM125.781 128.861V131.811H125.02V129.496H120.098V128.861H125.781ZM130.742 125.775C130.742 127.25 131.816 128.744 133.096 129.301L132.666 129.906C131.65 129.442 130.771 128.441 130.371 127.24C129.961 128.515 129.087 129.623 128.096 130.121L127.637 129.516C128.877 128.92 129.961 127.279 129.971 125.775V124.643H127.92V124.008H132.812V124.643H130.742V125.775ZM134.795 123.109V131.791H134.023V123.109H134.795Z" fill="black"/>
<path d="M118.008 144.135V145.131H110.615V144.135H113.691V143.1H114.922V144.135H118.008ZM118.398 149.994V150.99H110.264V149.994H113.691V148.969C112.178 148.842 111.26 148.217 111.27 147.24C111.26 146.166 112.432 145.512 114.307 145.521C116.152 145.512 117.334 146.166 117.334 147.24C117.334 148.217 116.411 148.842 114.922 148.969V149.994H118.398ZM114.307 146.488C113.154 146.488 112.539 146.732 112.549 147.24C112.539 147.768 113.154 148.002 114.307 148.002C115.43 148.002 116.055 147.768 116.055 147.24C116.055 146.732 115.43 146.488 114.307 146.488ZM126.611 143.012V151.898H125.439V143.012H126.611ZM124.756 143.207V151.508H123.574V148.578H122.314V147.572H123.574V146.361H122.48C122.065 147.826 121.167 149.066 119.502 150.053L118.77 149.174C120.571 148.109 121.362 146.815 121.533 145.072H119.287V144.066H122.773C122.773 144.511 122.744 144.94 122.695 145.355H123.574V143.207H124.756ZM130.82 145.023C130.811 146.615 131.494 148.227 132.92 148.91L132.168 149.906C131.216 149.438 130.576 148.559 130.205 147.484C129.819 148.637 129.131 149.579 128.125 150.072L127.354 149.066C128.857 148.373 129.57 146.674 129.57 145.023V143.695H130.82V145.023ZM134.561 143.012V146.439H135.869V147.494H134.561V151.898H133.311V143.012H134.561ZM143.682 143.012V151.898H142.441V147.445H140.674V146.43H142.441V143.012H143.682ZM140.723 143.939C140.723 146.625 139.854 148.812 136.748 150.355L136.104 149.379C138.35 148.271 139.277 146.859 139.473 144.916H136.523V143.939H140.723ZM152.285 143.012V151.918H151.045V143.012H152.285ZM149.531 143.754V147.182H146.602V148.812C147.954 148.808 149.106 148.729 150.41 148.52L150.518 149.525C149.053 149.779 147.734 149.838 146.113 149.838H145.312V146.195H148.262V144.76H145.303V143.754H149.531Z" fill="black"/>
</svg>
