<svg width="312" height="280" viewBox="0 0 312 280" fill="none" xmlns="http://www.w3.org/2000/svg">
<rect x="0.5" y="0.5" width="311" height="279" rx="15.5" fill="white"/>
<rect x="0.5" y="0.5" width="311" height="279" rx="15.5" stroke="#DEDEDE"/>
<path d="M71.3514 180.216V159.784H112.216V200.649H71.3514V180.216ZM106.378 180.216V165.622H77.1892V194.811H106.378V180.216ZM83.0271 180.216V171.459H100.541V188.973H83.0271V180.216ZM123.892 197.73V194.811H118.054V183.135H123.892V165.622H129.73V159.784H118.054V153.946H94.7027V148.108H100.541V142.27H88.8649V153.946H83.0271V148.108H71.3514V142.27H83.0271V130.595H77.1892V136.432H71.3514V124.757H83.0271V130.595H88.8649V136.432H94.7027V130.595H100.541V136.432H112.216V130.595H106.378V124.757H88.8649V118.919H106.378V113.081H88.8649V107.243H83.0271V113.081H71.3514V95.5676H77.1892V101.405H112.216V95.5676H106.378V89.7297H94.7027V95.5676H88.8649V89.7297H77.1892V78.0541H88.8649V89.7297H94.7027V83.8919H106.378V78.0541H112.216V83.8919H106.378V89.7297H112.216V95.5676H118.054V83.8919H123.892V78.0541H118.054V60.5405H129.73V66.3784H135.568V72.2162H129.73V78.0541H135.568V113.081H123.892V107.243H118.054V113.081H112.216V118.919H106.378V124.757H112.216V130.595H118.054V136.432H129.73V130.595H123.892V124.757H118.054V118.919H129.73V130.595H135.568V118.919H141.405V130.595H147.243V113.081H153.081V107.243H158.919V113.081H153.081V118.919H158.919V124.757H176.432V118.919H170.595V113.081H164.757V101.405H158.919V95.5676H164.757V89.7297H170.595V83.8919H164.757V78.0541H158.919V89.7297H153.081V83.8919H147.243V89.7297H141.405V83.8919H147.243V78.0541H141.405V60.5405H135.568V54.7027H141.405V60.5405H147.243V37.1892H153.081V48.8649H164.757V43.027H158.919V31.3513H170.595V37.1892H164.757V43.027H176.432V37.1892H182.27V31.3513H193.946V48.8649H182.27V43.027H176.432V54.7027H182.27V72.2162H188.108V66.3784H193.946V95.5676H205.622V89.7297H199.784V78.0541H211.46V95.5676H223.135V89.7297H217.297V78.0541H223.135V89.7297H228.973V83.8919H240.649V95.5676H234.811V89.7297H228.973V95.5676H223.135V113.081H228.973V118.919H223.135V124.757H211.46V130.595H205.622V136.432H193.946V130.595H188.108V124.757H182.27V136.432H188.108V142.27H205.622V148.108H217.297V142.27H211.46V136.432H217.297V130.595H223.135V136.432H228.973V142.27H234.811V130.595H228.973V124.757H240.649V142.27H234.811V153.946H240.649V165.622H234.811V183.135H240.649V188.973H223.135V200.649H205.622V194.811H217.297V188.973H205.622V177.297H199.784V188.973H193.946V194.811H199.784V200.649H188.108V183.135H182.27V194.811H176.432V188.973H170.595V165.622H176.432V183.135H182.27V165.622H188.108V153.946H182.27V148.108H176.432V142.27H182.27V136.432H176.432V130.595H170.595V153.946H176.432V159.784H164.757V171.459H158.919V183.135H164.757V188.973H158.919V194.811H170.595V200.649H158.919V194.811H153.081V188.973H147.243V200.649H123.892V197.73ZM141.405 188.973V183.135H147.243V165.622H135.568V171.459H141.405V177.297H129.73V183.135H123.892V188.973H129.73V194.811H141.405V188.973ZM223.135 183.135V177.297H228.973V165.622H234.811V159.784H228.973V142.27H223.135V159.784H228.973V165.622H223.135V171.459H217.297V188.973H223.135V183.135ZM193.946 180.216V177.297H188.108V183.135H193.946V180.216ZM158.919 168.541V165.622H153.081V171.459H158.919V168.541ZM211.46 162.703V153.946H193.946V171.459H211.46V162.703ZM199.784 162.703V159.784H205.622V165.622H199.784V162.703ZM153.081 156.865V153.946H164.757V148.108H153.081V142.27H147.243V148.108H153.081V153.946H141.405V148.108H135.568V153.946H129.73V148.108H123.892V142.27H118.054V136.432H112.216V142.27H106.378V148.108H112.216V142.27H118.054V148.108H123.892V153.946H129.73V159.784H153.081V156.865ZM135.568 139.351V136.432H129.73V142.27H135.568V139.351ZM164.757 136.432V130.595H153.081V136.432H158.919V142.27H164.757V136.432ZM199.784 127.676V124.757H193.946V130.595H199.784V127.676ZM211.46 121.838V118.919H217.297V101.405H211.46V107.243H205.622V113.081H199.784V107.243H188.108V101.405H182.27V95.5676H188.108V78.0541H182.27V72.2162H176.432V66.3784H170.595V72.2162H164.757V54.7027H170.595V60.5405H176.432V54.7027H170.595V48.8649H164.757V54.7027H158.919V72.2162H164.757V78.0541H170.595V72.2162H176.432V89.7297H170.595V95.5676H164.757V101.405H170.595V113.081H176.432V107.243H188.108V113.081H193.946V118.919H205.622V124.757H211.46V121.838ZM205.622 116V113.081H211.46V118.919H205.622V116ZM112.216 110.162V107.243H118.054V101.405H112.216V107.243H106.378V113.081H112.216V110.162ZM129.73 98.4865V95.5676H123.892V101.405H129.73V98.4865ZM129.73 69.2973V66.3784H123.892V72.2162H129.73V69.2973ZM153.081 66.3784V60.5405H147.243V72.2162H153.081V66.3784ZM188.108 40.1081V37.1892H182.27V43.027H188.108V40.1081ZM234.811 197.73V194.811H240.649V200.649H234.811V197.73ZM234.811 113.081V107.243H228.973V101.405H234.811V107.243H240.649V118.919H234.811V113.081ZM71.3514 51.7838V31.3513H112.216V72.2162H71.3514V51.7838ZM106.378 51.7838V37.1892H77.1892V66.3784H106.378V51.7838ZM83.0271 51.7838V43.027H100.541V60.5405H83.0271V51.7838ZM199.784 51.7838V31.3513H240.649V72.2162H199.784V51.7838ZM234.811 51.7838V37.1892H205.622V66.3784H234.811V51.7838ZM211.46 51.7838V43.027H228.973V60.5405H211.46V51.7838ZM118.054 51.7838V48.8649H123.892V54.7027H118.054V51.7838ZM129.73 45.9459V43.027H123.892V31.3513H129.73V37.1892H135.568V31.3513H141.405V37.1892H135.568V48.8649H129.73V45.9459Z" fill="black"/>
<mask id="mask0_12_545" style="mask-type:alpha" maskUnits="userSpaceOnUse" x="71" y="240" width="24" height="24">
<rect x="71" y="240" width="24" height="24" fill="#D9D9D9"/>
</mask>
<g mask="url(#mask0_12_545)">
<path d="M83 258C84.6667 258 86.0833 257.417 87.25 256.25C88.4167 255.083 89 253.667 89 252C89 250.55 88.5375 249.275 87.6125 248.175C86.6875 247.075 85.5167 246.383 84.1 246.1C83.8 246.067 83.5417 246.15 83.325 246.35C83.1083 246.55 83 246.8 83 247.1V252L79.55 255.45C79.3333 255.667 79.2333 255.925 79.25 256.225C79.2667 256.525 79.3917 256.767 79.625 256.95C80.1083 257.333 80.6417 257.604 81.225 257.762C81.8083 257.921 82.4 258 83 258ZM83 262C81.6167 262 80.3167 261.737 79.1 261.212C77.8833 260.688 76.825 259.975 75.925 259.075C75.025 258.175 74.3125 257.117 73.7875 255.9C73.2625 254.683 73 253.383 73 252C73 250.617 73.2625 249.317 73.7875 248.1C74.3125 246.883 75.025 245.825 75.925 244.925C76.825 244.025 77.8833 243.312 79.1 242.788C80.3167 242.262 81.6167 242 83 242C84.3833 242 85.6833 242.262 86.9 242.788C88.1167 243.312 89.175 244.025 90.075 244.925C90.975 245.825 91.6875 246.883 92.2125 248.1C92.7375 249.317 93 250.617 93 252C93 253.383 92.7375 254.683 92.2125 255.9C91.6875 257.117 90.975 258.175 90.075 259.075C89.175 259.975 88.1167 260.688 86.9 261.212C85.6833 261.737 84.3833 262 83 262ZM83 260C85.2333 260 87.125 259.225 88.675 257.675C90.225 256.125 91 254.233 91 252C91 249.767 90.225 247.875 88.675 246.325C87.125 244.775 85.2333 244 83 244C80.7667 244 78.875 244.775 77.325 246.325C75.775 247.875 75 249.767 75 252C75 254.233 75.775 256.125 77.325 257.675C78.875 259.225 80.7667 260 83 260Z" fill="#3C5AED"/>
</g>
<path d="M111.251 256.162C109.204 256.157 107.986 254.546 107.99 251.765C107.99 248.993 109.216 247.398 111.251 247.398C113.281 247.398 114.512 248.997 114.512 251.765C114.508 254.554 113.294 256.162 111.251 256.162ZM109.527 251.765C109.527 253.804 110.186 254.869 111.251 254.869C112.312 254.869 112.97 253.804 112.97 251.765C112.966 249.739 112.307 248.67 111.251 248.67C110.19 248.67 109.531 249.739 109.527 251.765ZM115.791 256L115.786 254.894L118.782 252.006C119.64 251.148 120.088 250.642 120.092 249.934C120.088 249.138 119.462 248.641 118.629 248.641C117.759 248.641 117.195 249.188 117.199 250.05H115.749C115.741 248.442 116.947 247.398 118.65 247.398C120.378 247.398 121.546 248.434 121.55 249.855C121.546 250.816 121.086 251.591 119.416 253.166L117.912 254.662V254.724H121.679V256H115.791ZM123.949 256.091C123.448 256.091 123.033 255.685 123.042 255.184C123.033 254.686 123.448 254.285 123.949 254.285C124.438 254.285 124.853 254.686 124.857 255.184C124.853 255.685 124.438 256.091 123.949 256.091ZM123.046 250.634C123.038 250.137 123.452 249.735 123.953 249.735C124.442 249.735 124.857 250.137 124.861 250.634C124.857 251.135 124.442 251.541 123.953 251.541C123.452 251.541 123.038 251.135 123.046 250.634ZM129.295 256.116C127.604 256.116 126.353 255.105 126.307 253.696H127.791C127.844 254.388 128.495 254.881 129.295 254.881C130.248 254.881 130.927 254.198 130.927 253.253C130.927 252.287 130.227 251.599 129.249 251.591C128.59 251.587 128.11 251.819 127.84 252.316H126.431L126.937 247.514H131.951V248.79H128.197L127.94 251.044H128.014C128.346 250.671 128.963 250.402 129.664 250.402C131.238 250.402 132.407 251.579 132.407 253.211C132.407 254.906 131.13 256.116 129.295 256.116ZM136.705 247.398C138.363 247.406 140.012 248.401 140.016 251.496C140.016 254.425 138.694 256.116 136.614 256.116C134.973 256.116 133.842 255.097 133.655 253.696H135.164C135.321 254.363 135.839 254.794 136.614 254.794C137.84 254.794 138.528 253.709 138.537 251.89H138.445C138.019 252.623 137.202 253.062 136.274 253.062C134.753 253.062 133.581 251.91 133.577 250.307C133.573 248.645 134.824 247.39 136.705 247.398ZM135.06 250.269C135.064 251.181 135.74 251.898 136.693 251.898C137.633 251.898 138.363 251.135 138.358 250.261C138.354 249.395 137.662 248.633 136.713 248.633C135.76 248.633 135.052 249.362 135.06 250.269ZM152.91 247.588V248.641H144.258V247.588H147.955V246.424H149.247V247.588H152.91ZM143.782 254.359V253.298H153.466V254.359H149.247V257.052H147.955V254.359H143.782ZM145.017 250.92C145.008 249.756 146.355 249.122 148.601 249.122C150.839 249.122 152.185 249.756 152.189 250.92C152.185 252.072 150.839 252.706 148.601 252.71C146.355 252.706 145.008 252.072 145.017 250.92ZM146.372 250.92C146.363 251.454 147.134 251.736 148.601 251.732C150.06 251.736 150.83 251.454 150.839 250.92C150.83 250.373 150.06 250.091 148.601 250.091C147.134 250.091 146.363 250.373 146.372 250.92ZM162.387 247.008V248.044H158.741V249.001H162.176V250.029H158.741V251.019C160.568 251.011 161.704 250.949 162.997 250.717L163.146 251.749C161.704 252.001 160.44 252.047 158.281 252.047H157.427V247.008H162.387ZM158.488 256.912V252.764H159.785V253.796H164.049V252.764H165.358V256.912H158.488ZM159.785 255.859H164.049V254.807H159.785V255.859ZM164.049 252.316V246.453H165.358V248.798H166.838V249.892H165.358V252.316H164.049ZM172.87 247.017C172.866 248.206 174.329 249.428 176.508 249.689L176.028 250.717C174.279 250.472 172.883 249.669 172.203 248.575C171.524 249.673 170.131 250.468 168.375 250.717L167.869 249.689C170.065 249.428 171.524 248.218 171.528 247.017V246.623H172.87V247.017ZM167.372 252.42V251.388H177.022V252.42H167.372ZM168.495 255.134C168.495 253.899 169.875 253.224 172.183 253.228C174.466 253.224 175.85 253.899 175.854 255.134C175.85 256.352 174.466 257.04 172.183 257.044C169.875 257.04 168.495 256.352 168.495 255.134ZM169.821 255.134C169.812 255.739 170.645 256.041 172.183 256.033C173.703 256.041 174.544 255.739 174.553 255.134C174.544 254.529 173.703 254.222 172.183 254.214C170.645 254.222 169.812 254.529 169.821 255.134ZM184.179 253.153H185.567L186.296 254.098C186.777 253.597 187.063 252.805 187.063 251.757C187.063 249.818 186.089 248.769 184.705 248.769C183.317 248.769 182.343 249.818 182.343 251.757C182.343 253.696 183.317 254.744 184.705 254.744C184.925 254.744 185.136 254.72 185.335 254.666L184.179 253.153ZM180.81 251.757C180.81 249.014 182.472 247.398 184.705 247.398C186.926 247.398 188.6 249.014 188.6 251.757C188.6 253.294 188.074 254.479 187.22 255.221L188.393 256.733H186.905L186.205 255.838C185.745 256.021 185.244 256.116 184.705 256.116C182.472 256.116 180.81 254.492 180.81 251.757ZM189.971 256V247.514H193.145C195.097 247.514 196.137 248.608 196.137 250.228C196.137 251.38 195.611 252.233 194.608 252.635L196.448 256H194.74L193.075 252.888H191.492V256H189.971ZM191.492 251.62H192.921C194.065 251.62 194.579 251.131 194.579 250.228C194.579 249.325 194.065 248.79 192.913 248.79H191.492V251.62ZM205.635 247.39V248.351C205.627 249.635 205.643 251.115 205.167 253.356L203.89 253.228C204.077 252.374 204.185 251.616 204.251 250.936L198.002 251.293L197.812 250.178L204.325 249.942C204.35 249.391 204.354 248.898 204.354 248.442H198.143V247.39H205.635ZM197.02 255.739V254.666H200.584V252.055H201.877V254.666H206.671V255.739H197.02ZM215.989 251.413V252.465H208.564V247.373H215.906V248.43H209.853V251.413H215.989ZM207.391 255.698V254.62H217.075V255.698H207.391ZM225.988 247.36V252.374H220.971V247.36H225.988ZM222.18 256.837V253.435H223.477V255.78H229.382V256.837H222.18ZM222.255 251.338H224.708V248.405H222.255V251.338ZM227.658 254.189V246.453H228.968V249.557H230.447V250.638H228.968V254.189H227.658ZM240.665 254.736V255.814H230.981V254.736H233.542V252.992H232.129V249.532H238.228V248.227H232.112V247.174H239.517V250.576H233.43V251.931H239.762V252.992H238.212V254.736H240.665ZM234.81 254.736H236.931V252.992H234.81V254.736Z" fill="#191919" fill-opacity="0.7"/>
</svg>
